<?xml version="1.0" encoding="utf-8"?>
<!-- Generator: Adobe Illustrator 22.1.0, SVG Export Plug-In . SVG Version: 6.00 Build 0)  -->
<svg version="1.1" id="图层_1" xmlns="http://www.w3.org/2000/svg" xmlns:xlink="http://www.w3.org/1999/xlink" x="0px" y="0px"
	 viewBox="0 0 200 200" style="enable-background:new 0 0 200 200;" xml:space="preserve">
<g>
	<path d="M154.8,144H45.1v-18.7h-6V172c0,8.3,6.7,15,15,15h91.7c8.3,0,15-6.7,15-15v-46.7h-6V144z M154.8,172c0.1,5-4,9-8.9,9H54.1
		c-5,0-9-4-9-9v-22h109.7V172z"/>
	<path d="M45.1,28c0-5,4.1-9,9-9h91.7c5,0,9,4,9,9v21h6V28c0.1-8.3-6.7-15-14.9-15H54.1c-8.3,0-15,6.7-15,15v21h6V28z"/>
	<path d="M64.7,102.5l4.7,13.2c0.3,1,0.7,1.8,1.3,2.4c0.6,0.6,1.4,0.9,2.4,0.8c1.5,0,2.4-0.5,2.9-1.4c0.4-1,0.4-2.1-0.1-3.5L57.7,61
		c-0.3-0.9-0.8-1.7-1.6-2.2c-0.7-0.5-1.7-0.8-2.9-0.8c-1.2,0-2.1,0.3-2.8,0.8c-0.7,0.5-1.2,1.3-1.5,2.2l-18.1,52.8
		c-0.6,2-0.6,3.3,0,4c0.6,0.7,1.5,1.1,2.7,1.1c0.6,0,1.2-0.2,1.7-0.6c0.5-0.4,0.9-0.9,1.3-1.5c0.4-0.6,0.7-1.3,1-2.1
		c0.3-0.7,0.6-1.5,0.9-2.3l3.5-9.9H64.7z M53.3,66.8l9.8,29.6H43.5L53.3,66.8z"/>
	<path d="M89.9,59c-2.1,0-3.4,0.3-4,0.8c-0.6,0.5-0.9,1.7-0.9,3.3v52.3c0,1,0.3,1.8,0.8,2.5c0.5,0.7,1.4,1,2.7,1
		c1.2,0,2.1-0.3,2.6-0.9c0.5-0.6,0.8-1.5,0.8-2.5V95.6h11.7c12.7,0,19.1-6.2,19.1-18.5c0-6.3-1.6-10.9-4.7-13.8
		c-3.1-2.9-7.9-4.4-14.4-4.4H89.9z M115.9,77.2c0,4.3-1,7.5-2.8,9.5c-1.9,2-5.1,3-9.5,3H91.8V65h11.7c4,0,7,0.9,9.2,2.8
		C114.8,69.8,115.9,72.9,115.9,77.2z"/>
	<path d="M165,63.3c-3.1-2.9-7.9-4.4-14.4-4.4h-13.6c-2.1,0-3.4,0.3-4,0.8c-0.6,0.5-0.9,1.7-0.9,3.3v52.3c0,1,0.3,1.8,0.8,2.5
		c0.5,0.7,1.4,1,2.7,1c1.2,0,2.1-0.3,2.6-0.9c0.5-0.6,0.8-1.5,0.8-2.5V95.6h11.7c12.7,0,19.1-6.2,19.1-18.5
		C169.6,70.8,168.1,66.2,165,63.3z M160,86.7c-1.9,2-5.1,3-9.5,3h-11.7V65h11.7c4,0,7,0.9,9.2,2.8c2.1,1.9,3.2,5,3.2,9.3
		C162.9,81.5,161.9,84.7,160,86.7z"/>
</g>
</svg>
