<?xml version="1.0" encoding="utf-8"?>
<!-- Generator: Adobe Illustrator 22.1.0, SVG Export Plug-In . SVG Version: 6.00 Build 0)  -->
<svg version="1.1" id="图层_1" xmlns="http://www.w3.org/2000/svg" xmlns:xlink="http://www.w3.org/1999/xlink" x="0px" y="0px"
	 viewBox="0 0 200 200" style="enable-background:new 0 0 200 200;" xml:space="preserve">
<g>
	<path d="M165,42.5H35c-2.2,0-4,1.8-4,4s1.8,4,4,4h130c2.2,0,4-1.8,4-4S167.2,42.5,165,42.5z"/>
	<path d="M102.8,59.7c-1.6-1.6-4.1-1.6-5.7,0l-50,50c-1.6,1.6-1.6,4.1,0,5.7c0.8,0.8,1.8,1.2,2.8,1.2s2-0.4,2.8-1.2L96,72.2v97.1
		c0,2.2,1.8,4,4,4s4-1.8,4-4V72.2l43.2,43.2c0.8,0.8,1.8,1.2,2.8,1.2s2-0.4,2.8-1.2c1.6-1.6,1.6-4.1,0-5.7L102.8,59.7z"/>
</g>
</svg>
