<?xml version="1.0" encoding="utf-8"?>
<!-- Generator: Adobe Illustrator 22.1.0, SVG Export Plug-In . SVG Version: 6.00 Build 0)  -->
<svg version="1.1" id="图层_1" xmlns="http://www.w3.org/2000/svg" xmlns:xlink="http://www.w3.org/1999/xlink" x="0px" y="0px"
	 viewBox="0 0 200 200" style="enable-background:new 0 0 200 200;" xml:space="preserve">
<style type="text/css">
	.st0{fill:#c2a77d;}
</style>
<g>
	<path class="st0" d="M162.7,50.3c-8.3-12.2-20.8-20.4-35.3-23.2c-1.7-0.3-3.4,0.8-3.7,2.5c-0.3,1.7,0.8,3.4,2.5,3.7
		c12.8,2.4,23.9,9.7,31.2,20.5c7.3,10.8,10,23.8,7.6,36.6c-0.3,1.7,0.8,3.4,2.5,3.7c0.2,0,0.4,0.1,0.6,0.1c1.5,0,2.8-1.1,3.1-2.6
		C174,77.1,171,62.5,162.7,50.3z"/>
	<path class="st0" d="M152.2,87.9c0.1,0,0.2,0,0.3,0c1.6,0,3-1.2,3.1-2.9c1.8-18.2-9.6-35.4-27-40.8c-1.7-0.5-3.4,0.4-4,2.1
		c-0.6,1.7,0.4,3.4,2.1,4c14.6,4.6,24.1,18.9,22.6,34.1C149.2,86.2,150.5,87.7,152.2,87.9z"/>
	<path class="st0" d="M120.1,68c3.7,0.7,6.9,2.8,9,5.9c2.1,3.1,2.9,6.8,2.2,10.5c-0.3,1.7,0.8,3.4,2.5,3.7c0.2,0,0.4,0.1,0.6,0.1
		c1.5,0,2.8-1.1,3.1-2.6c1-5.3-0.1-10.8-3.2-15.3c-3.1-4.5-7.7-7.5-13-8.6c-1.7-0.3-3.4,0.8-3.7,2.5C117.3,66,118.4,67.7,120.1,68z"
		/>
	<path class="st0" d="M127.2,121c-7.9-2.8-14.3-1.5-20,4.3c-4.5,4.4-6.8,4.3-12.3-0.5c-7.7-6.7-12.8-15.2-18.1-24.1
		c-1.4-2.3-2.8-4.6-4.2-6.9c-2.6-4.2-3.5-6.9-3-8.8c0.4-1.8,2.4-3.6,6.3-5.9C80,76.6,86.3,69.3,87,59.4c0.7-10.2-4-22.2-6.7-26.3
		C74.8,24,68.2,19.9,60.2,20.7C50.5,21.6,42.7,26,37,33.8c-7.4,10.1-9.1,22.2-9.3,30.5c-0.3,21.2,7,42.6,22.6,65.2
		c7.7,11.1,14.8,19.6,24.5,29.1c12.4,12.1,32.5,20.1,52.3,20.9c0.6,0,1.3,0,1.9,0c12.6,0,22.4-5.9,28.5-17.1v-0.1
		c3.8-7.4,3.4-14.1-1.3-21.1C148.2,129.6,136.5,124.3,127.2,121z M151.9,159.4c-5.2,9.6-13.5,14.2-24.5,13.7
		c-18.3-0.8-36.8-8.1-48.1-19.1c-9.4-9.2-16.3-17.3-23.8-28.2c-14.7-21.5-21.7-41.6-21.4-61.4c0.1-7.4,1.7-18.1,8.1-26.9
		C46.7,31.2,53,27.7,60.8,27c0.4,0,0.8-0.1,1.2-0.1c4.9,0,9.1,3,13,9.5c1.9,3,6.3,13.8,5.7,22.6c-0.5,7.1-5,12.9-8,14.7
		c-5.5,3.2-8.3,6.1-9.2,9.8c-1.2,4.6,1.1,9.3,3.8,13.6c1.4,2.2,2.8,4.6,4.1,6.8c5.4,9,10.9,18.3,19.4,25.7
		c5.7,5.1,12.2,8.6,20.9,0.2c4.1-4.1,7.8-4.9,13.4-2.8c12.6,4.5,20.4,9.8,25.9,17.8C154.4,149.8,154.7,154,151.9,159.4z"/>
</g>
</svg>
