<?xml version="1.0" encoding="utf-8"?>
<!-- Generator: Adobe Illustrator 22.1.0, SVG Export Plug-In . SVG Version: 6.00 Build 0)  -->
<svg version="1.1" id="图层_1" xmlns="http://www.w3.org/2000/svg" xmlns:xlink="http://www.w3.org/1999/xlink" x="0px" y="0px"
	 viewBox="0 0 200 200" style="enable-background:new 0 0 200 200;" xml:space="preserve">
<style type="text/css">
	.st0{fill:#c2a77d;}
</style>
<path id="XMLID_30_" class="st0" d="M180,95.3C180,51,144.1,15,100,15c-43.8,0-79.4,35.5-79.9,79.4C20,94.9,20,95.5,20,96v36.5
	c0,8.4,6.8,15.2,15.1,15.2h6.1c8.3,0,15.1-6.8,15.1-15.2V96c0-8.4-6.8-15.2-15.1-15.2h-6.1c-2.9,0-5.7,0.9-8,2.3
	c5.8-35.1,36.3-62,72.9-62c36.7,0,67.1,26.9,72.9,62.1c-2.3-1.5-5.1-2.4-8.1-2.4h-6.1c-8.3,0-15.1,6.8-15.1,15.2v36.5
	c0,8.1,6.4,14.8,14.4,15.2l-36.7,24.9c-1.2-4-4.8-6.9-9.2-6.9H94c-5.3,0-9.6,4.3-9.6,9.6s4.3,9.6,9.6,9.6h18.2
	c3.3,0,6.1-1.6,7.9-4.2l50.3-34.2c5.6-2.2,9.6-7.7,9.6-14.1V96C180,95.8,180,95.5,180,95.3L180,95.3z M35.1,86.9h6.1
	c5,0,9.1,4.1,9.1,9.1v36.5c0,5-4.1,9.1-9.1,9.1h-6.1c-5,0-9.1-4.1-9.1-9.1V96c0-0.2,0-0.5,0-0.7l0,0c0-0.1,0-0.3,0-0.4
	C26.7,90.4,30.5,86.9,35.1,86.9z M164.9,141.6h-6.1c-5,0-9.1-4.1-9.1-9.1V96c0-5,4.1-9.1,9.1-9.1h6.1c5,0,9.1,4.1,9.1,9.1v36.5
	c0,2.2-0.8,4.2-2.1,5.8l-4.3,2.9C166.7,141.5,165.8,141.6,164.9,141.6z M112.2,179.9H94c-2.5,0-4.5-2-4.5-4.6c0-2.5,2-4.6,4.5-4.6
	h18.2c2.5,0,4.5,2,4.5,4.6c0,0.1,0,0.3,0,0.4l-0.1,0.1l0.1,0.2C116.3,178.3,114.5,179.9,112.2,179.9z"/>
</svg>
