<?xml version="1.0" encoding="utf-8"?>
<!-- Generator: Adobe Illustrator 22.1.0, SVG Export Plug-In . SVG Version: 6.00 Build 0)  -->
<svg version="1.1" id="图层_1" xmlns="http://www.w3.org/2000/svg" xmlns:xlink="http://www.w3.org/1999/xlink" x="0px" y="0px"
	 viewBox="0 0 100 100" style="enable-background:new 0 0 100 100;" xml:space="preserve">
<style type="text/css">
	.st0{fill:#FFD451;}
	.st1{fill:#E3E3E3;}
	.st2{fill:#004F82;}
	.st3{fill:#F0EFEF;}
	.st4{fill:#252246;}
	.st5{fill:#0061A0;}
	.st6{fill:#161F4A;}
	.st7{fill:#2FBFCD;}
</style>
<g>
	<g>
		<path class="st0" d="M69.9,62c0,11.4-8.9,20.6-19.9,20.6l0,0c-11,0-19.9-9.2-19.9-20.6V28.6C30.1,17.3,39,8,50,8l0,0
			c11,0,19.9,9.2,19.9,20.6V62z"/>
	</g>
	<g>
		<rect x="40.9" y="46.3" class="st1" width="18.1" height="21.9"/>
	</g>
	<g>
		<rect x="35.9" y="59.9" class="st2" width="28.1" height="32.4"/>
	</g>
	<g>
		<path class="st3" d="M68.1,29.1c-1.4-1.9-3.5,0.5-3.5,0.5C64.6,11.6,50,13.8,50,13.8s-14.6-2.2-14.6,15.9c0,0-2.1-2.4-3.5-0.5
			c-1.4,1.9,0.5,13.1,3.5,10.8c0,0,2.8,15.5,14.6,15.5c11.8,0,14.6-15.5,14.6-15.5C67.6,42.2,69.5,31,68.1,29.1z"/>
	</g>
	<g>
		<path class="st4" d="M62.4,57.2c0,0-3.8,21.4-12.4,21.4c-8.6,0-12.4-21.4-12.4-21.4c-6.5,0-14.9,5.4-14.9,5.4L13,100h37h37
			l-8.4-36.1C78.6,63.9,69.7,57.2,62.4,57.2z"/>
	</g>
	<g>
		<path class="st5" d="M50,60.1c0,0-5.8-1.6-12.5,7.5l-1.6-10.2c0,0,2.7-4.6,4.7-4.6C40.6,52.8,46.3,58.5,50,60.1z"/>
	</g>
	<g>
		<path class="st5" d="M50,60.1c0,0,5.8-1.6,12.5,7.5l1.6-10.2c0,0-2.7-4.6-4.7-4.6C59.4,52.8,53.7,58.5,50,60.1z"/>
	</g>
	<g>
		<path class="st0" d="M60.1,19.6c0,0-17.6,14.1-24.7,10.1c0,0-4.4-17.5,15.7-17.5c12.4,0,15.4,13.8,13.5,17.5
			C64.6,29.7,60.4,25.5,60.1,19.6z"/>
	</g>
	<g>
		<g>
			<path class="st6" d="M29.9,31.2c-0.2-0.5-4.1-13,1.8-21.6C35.2,4.6,41.4,2,50,2c8.6,0,14.8,2.6,18.3,7.6c6,8.6,2,21,1.8,21.6
				l-2.4-0.8c0-0.1,3.7-11.7-1.5-19.2c-3-4.3-8.5-6.5-16.3-6.5c-7.8,0-13.3,2.2-16.3,6.5c-5.2,7.5-1.5,19.1-1.5,19.2L29.9,31.2z"/>
		</g>
		<g>
			<path class="st6" d="M59.6,48.1c-0.8,0-1.5,0-2.2-0.1c-0.6,0-1.2,0-1.7,0v-1.3c0.5,0,1.1,0,1.7,0c3,0.1,6.6,0.2,8.7-1.8
				c1.2-1.1,1.7-2.8,1.7-5.2h1.3c0,2.7-0.7,4.7-2.1,6.1C65.2,47.7,62.3,48.1,59.6,48.1z"/>
		</g>
		<g>
			<path class="st7" d="M35.3,40.7c0,0.4-0.2,0.7-0.6,0.7l-6.2,0.5c-0.3,0-0.6-0.2-0.7-0.6l-1-12.4c0-0.4,0.2-0.7,0.6-0.7l6.2-0.5
				c0.3,0,0.6,0.2,0.7,0.6L35.3,40.7z"/>
		</g>
		<g>
			<path class="st7" d="M64.7,40.7c0,0.4,0.2,0.7,0.6,0.7l6.2,0.5c0.3,0,0.6-0.2,0.7-0.6l1-12.4c0-0.4-0.2-0.7-0.6-0.7l-6.2-0.5
				c-0.3,0-0.6,0.2-0.7,0.6L64.7,40.7z"/>
		</g>
		<g>
			<path class="st7" d="M57,48.3c0,0.4-0.3,0.6-0.6,0.6h-3c-0.3,0-0.6-0.3-0.6-0.6v-1.9c0-0.4,0.3-0.6,0.6-0.6h3
				c0.3,0,0.6,0.3,0.6,0.6V48.3z"/>
		</g>
	</g>
</g>
</svg>
