<?xml version="1.0" encoding="utf-8"?>
<!-- Generator: Adobe Illustrator 22.1.0, SVG Export Plug-In . SVG Version: 6.00 Build 0)  -->
<svg version="1.1" id="图层_1" xmlns="http://www.w3.org/2000/svg" xmlns:xlink="http://www.w3.org/1999/xlink" x="0px" y="0px"
	 viewBox="0 0 100 100" style="enable-background:new 0 0 100 100;" xml:space="preserve">
<style type="text/css">
	.st0{fill:#c2a77d;}
</style>
<title>svg</title>
<path class="st0" d="M87.7,33.7c-0.1,0-0.1,0-0.2,0C83.3,15.8,67.6,2.5,48.6,2.5C29.2,2.5,13,16.6,9.4,35.2
	c-3.6,0.7-6.1,3.8-6.1,7.4v14.8c0,4.2,3.3,7.5,7.4,7.5c2.3,0,4.4-1.1,5.7-2.8c3.3,8.7,11.1,15.7,19.6,19.4c0.1,0.1,0.5,0.2,0.7,0.1
	c0.2-0.2-0.4-0.6-0.6-0.8c-0.2-0.2-0.5-0.4-0.7-0.5c-2.5-2.2-8.6-9.3-10-19c-0.7-4.6,2.8-9.1,6.8-9.9c6.5-1.2,12.9-2.6,19.3-3.8
	c4.1-0.7,6.9-3,8.6-6.7c0.4-0.9,1-2.6,1.2-5.2c0.1-0.4,0.4-0.7,0.8-0.7c0.3,0,0.5,0.1,0.6,0.3l0.2-0.1c2.5,3.7,7.6,11.9,8.3,20.5
	c0.8,9.9,0.4,16.6-7.2,23.5l0,0c-0.1,0.1-0.2,0.3-0.2,0.4c0,0.2,0.1,0.4,0.3,0.5c0.1,0,0.1,0.1,0.2,0.1c0,0,0.1,0,0.1,0
	c0,0,0.1,0,0.1,0c0.1-0.1,0.2-0.1,0.3-0.2c7.7-4.3,13.5-11.3,16.2-19.7c1.1,1.7,2.8,2.8,4.8,3.2c-3.2,14.5-16.2,23.6-32.2,25
	c-1-2.5-3.4-4.1-6.1-4.1c-3.6,0-6.6,2.9-6.6,6.4c0,3.5,2.9,6.4,6.6,6.4c2.8,0,5.3-1.8,6.2-4.5c18.6-1.5,33.5-12.6,36.6-29.7
	c2.8-1.2,4.7-3.9,4.7-7v-15C95.3,37.1,91.9,33.7,87.7,33.7L87.7,33.7z M80.8,38C76,24.9,63.4,15.5,48.6,15.5
	c-14.7,0-27.2,9.3-32.1,22.4c-0.3-0.3-0.5-0.6-0.8-0.8c2.8-15.9,16.5-28,33-28c16.4,0,30.1,12,32.9,27.8C81.3,37.2,81,37.6,80.8,38
	L80.8,38z M36.1,81.6C36.1,81.6,36.1,81.6,36.1,81.6L36.1,81.6z"/>
</svg>
