<?xml version="1.0" encoding="utf-8"?>
<!-- Generator: Adobe Illustrator 22.1.0, SVG Export Plug-In . SVG Version: 6.00 Build 0)  -->
<svg version="1.1" id="图层_1" xmlns="http://www.w3.org/2000/svg" xmlns:xlink="http://www.w3.org/1999/xlink" x="0px" y="0px"
	 viewBox="0 0 200 200" style="enable-background:new 0 0 200 200;" xml:space="preserve">
<g>
	<path d="M145.9,13H54.1c-8.3,0-15,6.7-15,15v144c0,8.3,6.7,15,15,15h91.7c8.3,0,15-6.7,15-15V28C160.9,19.7,154.1,13,145.9,13z
		 M54.1,19h91.7c5,0,9,4,9,9v116H45.1V28C45.1,23,49.2,19,54.1,19z M145.9,181H54.1c-5,0-9-4-9-9v-22h109.7v22
		C154.9,177,150.8,181,145.9,181z"/>
	<circle cx="100" cy="165" r="5"/>
</g>
<g>
	<circle cx="72.4" cy="80" r="8.4"/>
	<circle cx="100" cy="80" r="8.4"/>
	<circle cx="127.6" cy="80" r="8.4"/>
</g>
</svg>
