<?xml version="1.0" encoding="utf-8"?>
<!-- Generator: Adobe Illustrator 19.0.0, SVG Export Plug-In . SVG Version: 6.00 Build 0)  -->
<svg version="1.1" id="图层_1" xmlns="http://www.w3.org/2000/svg" xmlns:xlink="http://www.w3.org/1999/xlink" x="0px" y="0px"
	 viewBox="-50 -50 200 200" style="enable-background:new -50 -50 200 200;" xml:space="preserve">
<g>
	<path d="M95.9-37H4.1c-8.3,0-15,6.7-15,15v144c0,8.3,6.7,15,15,15h91.7c8.3,0,15-6.7,15-15V-22C110.9-30.3,104.1-37,95.9-37z
		 M4.1-31h91.7c5,0,9,4,9,9V94H-4.9V-22C-4.9-27-0.8-31,4.1-31z M95.9,131H4.1c-5,0-9-4-9-9v-22h109.7v22
		C104.9,127,100.8,131,95.9,131z"/>
	<circle cx="50" cy="115" r="5"/>
</g>
</svg>
