<?xml version="1.0" encoding="utf-8"?>
<!-- Generator: Adobe Illustrator 22.1.0, SVG Export Plug-In . SVG Version: 6.00 Build 0)  -->
<svg version="1.1" id="图层_1" xmlns="http://www.w3.org/2000/svg" xmlns:xlink="http://www.w3.org/1999/xlink" x="0px" y="0px"
	 viewBox="0 0 200 200" style="enable-background:new 0 0 200 200;" xml:space="preserve">
<style type="text/css">
	.st0{fill:#c2a77d;}
</style>
<g>
	<path class="st0" d="M20,79.9c0.2-1.7,0.5-3.5,0.7-5.2c1.6-9.8,6.1-18.1,12.9-25.2c9.6-10,21.4-15.7,35-17.8
		c15.2-2.4,29.7-0.3,43.2,7.1c12.8,7,21.8,17.3,25.9,31.5c0.2,0.7,0.6,0.9,1.3,1c13.3,2.4,24.3,8.6,32.6,19.3
		c4.7,6,7.3,12.9,7.9,20.6c0,0.4,0.3,0.8,0.5,1.2c0,1.4,0,2.8,0,4.2c-0.2,0.3-0.5,0.7-0.5,1c-0.7,9.2-4.4,17-10.5,23.8
		c-1.5,1.7-3,3.2-4.7,4.7c-0.7,0.7-0.8,1.2-0.6,2.1c2,6.7,3.9,13.5,5.9,20.3c0.1,0.2,0.1,0.4,0.2,0.8c-0.6-0.3-1.1-0.5-1.5-0.7
		c-8-3.8-15.9-7.7-23.9-11.5c-0.6-0.3-1.3-0.3-2-0.2c-5.5,1.4-11.1,2.1-16.8,1.7c-17.8-1.4-32.5-8.3-42.4-23.9c-0.4-0.7-0.8-1-1.7-1
		c-6.4,0.1-12.8-0.5-19.1-2.2c-0.5-0.1-1.1,0.1-1.6,0.3c-9.1,4.3-18.1,8.6-27.1,13c-0.4,0.2-0.7,0.3-1.3,0.6
		c1.1-3.7,2.1-7.2,3.1-10.6c1.3-4.4,2.5-8.7,3.8-13.1c0.3-1.1,0.1-1.6-0.8-2.3c-6.4-5.2-11.5-11.4-14.9-19
		c-2.1-4.7-3.3-9.6-3.6-14.7c0-0.4-0.2-0.8-0.3-1.2C20,83,20,81.4,20,79.9z M160.9,158.8c-0.1-0.5-0.2-0.7-0.2-0.9
		c-1.2-4.1-2.4-8.2-3.7-12.3c-0.2-0.7-0.1-1.1,0.5-1.6c2.5-2.1,5.1-4.1,7.3-6.4c10.1-10.9,12.2-26.4,5.1-39.2
		c-7.2-12.9-19-19.3-33-21.9c-5.4-1-11-0.8-16.5,0.1c-8.3,1.3-15.9,4.3-22.6,9.6c-8.2,6.5-13.4,14.9-14.2,25.5
		c-0.8,10.4,2.6,19.4,9.8,26.9c9.3,9.7,21.2,13.9,34.4,14.4c5.2,0.2,10.3-0.9,15.3-2c0.6-0.1,1.5,0,2.1,0.2c1.7,0.7,3.3,1.6,5,2.4
		C153.6,155.3,157.1,157,160.9,158.8z M131.8,70.6c-0.1-0.6-0.1-0.7-0.2-0.9c-0.3-0.8-0.6-1.7-0.9-2.5c-4.6-11-12.6-18.9-23.1-24.2
		c-12.7-6.5-26.2-8.1-40.1-5.4C55,40,44.1,45.7,35.8,55.5C26,67.2,23.1,80.4,27.8,95c3.1,9.4,9.2,16.6,17.2,22.3c0.8,0.6,1,1,0.7,2
		c-1,3.3-1.9,6.7-2.9,10c-0.5,1.8-1,3.5-1.5,5.5c0.7-0.3,1.1-0.5,1.5-0.7c5.9-2.8,11.7-5.5,17.6-8.3c0.5-0.2,1.1-0.3,1.6-0.2
		c4,0.7,8,1.5,12,2.1c1.9,0.3,4,0.2,6.1,0.4c-0.2-0.7-0.3-1.1-0.5-1.5c-3.1-10.1-2.7-20.1,2.1-29.5c8.5-16.9,23.2-24.4,41.3-26.5
		C125.9,70.3,128.8,70.6,131.8,70.6z"/>
	<path class="st0" d="M114.9,97.4c3.1,0,5.6,2.5,5.7,5.6c0,3-2.4,5.5-5.6,5.5s-5.6-2.3-5.6-5.4C109.5,99.9,111.9,97.4,114.9,97.4z"
		/>
	<path class="st0" d="M138.7,103.1c0-3.3,2.3-5.7,5.4-5.7c3.1,0,5.6,2.5,5.6,5.6s-2.3,5.4-5.6,5.5
		C141,108.5,138.7,106.3,138.7,103.1z"/>
	<path class="st0" d="M54.7,66.6c0-4.1,3.2-7.3,7.4-7.2c3.9,0,7.2,3.3,7.2,7.2c0,4-3.2,7.3-7.2,7.3C57.9,73.9,54.7,70.8,54.7,66.6z"
		/>
	<path class="st0" d="M104.7,66.8c0,4.1-3.2,7.2-7.3,7.2c-4,0-7.2-3.3-7.2-7.3c0-3.9,3.3-7.2,7.2-7.2
		C101.5,59.4,104.7,62.6,104.7,66.8z"/>
</g>
</svg>
