<svg id="圖層_1" data-name="圖層 1" xmlns="http://www.w3.org/2000/svg" viewBox="0 0 213.36 256.04"><defs><style>.cls-1{fill:#999;}</style></defs><title>suo</title><path class="cls-1" d="M206.34,85.39H191V64A64,64,0,1,0,63,64v21.4H47.63a27.31,27.31,0,0,0-27.29,27.29v116A27.31,27.31,0,0,0,47.63,256H206.41a27.35,27.35,0,0,0,27.29-27.29v-116a27.36,27.36,0,0,0-27.35-27.29ZM84.31,64a42.68,42.68,0,1,1,85.37,0v21.4H84.31ZM212.36,228.71a6,6,0,0,1-6,6H47.63a6,6,0,0,1-6-6v-116a6,6,0,0,1,6-6H206.34a6,6,0,0,1,6,6v116Z" transform="translate(-20.34 0.04)"/></svg>