<?xml version="1.0" encoding="utf-8"?>
<!-- Generator: Adobe Illustrator 22.0.1, SVG Export Plug-In . SVG Version: 6.00 Build 0)  -->
<svg version="1.1" id="图层_1" xmlns="http://www.w3.org/2000/svg" xmlns:xlink="http://www.w3.org/1999/xlink" x="0px" y="0px"
	 viewBox="0 0 200 70" style="enable-background:new 0 0 200 70;" xml:space="preserve">
<style type="text/css">
	.st0{fill:#E3B237;}
</style>
<g>
	<path class="st0" d="M98.5,16.5v1.1c-1.7,0-2.9,0.3-3.8,0.8c-1.2,0.7-2.7,2.2-4.6,4.5l-8.2,10.3l10.9,15.4c1.1,1.6,2.1,2.7,2.8,3.2
		c0.8,0.5,1.9,0.8,3.4,1v1.1H82.2v-1.1c1.3,0,2.2,0,2.6-0.1c1.2-0.2,1.7-0.8,1.7-1.8c0-0.5-0.4-1.3-1.1-2.5
		c-0.5-0.8-1.1-1.8-1.8-2.8l-5.3-7.9l-6.8,8.4c-0.9,1.2-1.6,2-1.9,2.5c-0.7,1-1,1.7-1,2.3c0,0.8,0.4,1.3,1.2,1.6
		c0.8,0.3,1.8,0.5,3.1,0.5v1.1H59.8v-1.1c1.7,0,3.2-0.7,4.5-2c0.4-0.4,1.7-1.9,3.7-4.5l8.9-10.9l-6.2-9c-2.7-3.9-4.7-6.4-6-7.5
		c-0.9-0.8-2.3-1.2-4.2-1.4v-1.1h17v1.1c-1.5,0-2.4,0-2.6,0.1c-1.1,0.2-1.7,0.8-1.7,1.7c0,0.6,0.3,1.5,1,2.6
		c0.7,1.2,1.9,3.1,3.7,5.7l2.4,3.3l6.4-7.8c0.5-0.6,0.9-1.1,1.2-1.6c0.7-0.9,1-1.7,1-2.2c0-0.8-0.3-1.3-1-1.5
		c-0.7-0.2-1.7-0.3-2.9-0.3v-1.1H98.5z"/>
	<path class="st0" d="M102.8,53.8l-0.1-0.5c2.1-0.4,3.8-1.3,5.2-2.7c1.3-1.4,2.2-3,2.7-5v-0.1c-0.6,0.5-1.2,0.8-1.9,1.1
		c-0.7,0.2-1.4,0.4-2,0.4c-1.6,0-2.8-0.6-3.7-1.8c-0.7-1-1.1-2.1-1.1-3.4c0-1.8,0.5-3.3,1.5-4.5c1-1.2,2.3-1.8,4-1.8
		c1.6,0,3,0.7,4.1,2c1.1,1.4,1.6,3.1,1.6,5.3c0,3-0.9,5.5-2.7,7.6C108.6,52.7,106,53.8,102.8,53.8z M110.8,43.9v-1
		c0-2.3-0.3-3.9-0.8-5c-0.6-1.1-1.5-1.7-2.7-1.7c-1,0-1.8,0.5-2.2,1.5c-0.4,0.8-0.6,1.8-0.6,3.1c0,1.3,0.2,2.4,0.6,3.3
		c0.6,1.2,1.5,1.8,2.7,1.8c0.4,0,0.9-0.1,1.4-0.3s0.9-0.4,1.2-0.6C110.6,44.8,110.8,44.4,110.8,43.9z"/>
	<path class="st0" d="M117.6,53.8l-0.1-0.5c2.1-0.4,3.8-1.3,5.2-2.7c1.3-1.4,2.2-3,2.7-5v-0.1c-0.6,0.5-1.2,0.8-1.9,1.1
		c-0.7,0.2-1.4,0.4-2,0.4c-1.6,0-2.8-0.6-3.7-1.8c-0.7-1-1.1-2.1-1.1-3.4c0-1.8,0.5-3.3,1.5-4.5c1-1.2,2.3-1.8,4-1.8
		c1.6,0,3,0.7,4.1,2c1.1,1.4,1.6,3.1,1.6,5.3c0,3-0.9,5.5-2.7,7.6C123.4,52.7,120.8,53.8,117.6,53.8z M125.6,43.9v-1
		c0-2.3-0.3-3.9-0.8-5c-0.6-1.1-1.5-1.7-2.7-1.7c-1,0-1.8,0.5-2.2,1.5c-0.4,0.8-0.6,1.8-0.6,3.1c0,1.3,0.2,2.4,0.6,3.3
		c0.6,1.2,1.5,1.8,2.7,1.8c0.4,0,0.9-0.1,1.4-0.3c0.5-0.2,0.9-0.4,1.2-0.6C125.4,44.8,125.6,44.4,125.6,43.9z"/>
	<path class="st0" d="M132.4,53.8l-0.1-0.5c2.1-0.4,3.8-1.3,5.2-2.7c1.3-1.4,2.2-3,2.7-5v-0.1c-0.6,0.5-1.2,0.8-1.9,1.1
		c-0.7,0.2-1.4,0.4-2,0.4c-1.6,0-2.8-0.6-3.7-1.8c-0.7-1-1.1-2.1-1.1-3.4c0-1.8,0.5-3.3,1.5-4.5c1-1.2,2.3-1.8,4-1.8
		c1.6,0,3,0.7,4.1,2c1.1,1.4,1.6,3.1,1.6,5.3c0,3-0.9,5.5-2.7,7.6C138.2,52.7,135.6,53.8,132.4,53.8z M140.3,43.9v-1
		c0-2.3-0.3-3.9-0.8-5c-0.6-1.1-1.5-1.7-2.7-1.7c-1,0-1.8,0.5-2.2,1.5c-0.4,0.8-0.6,1.8-0.6,3.1c0,1.3,0.2,2.4,0.6,3.3
		c0.6,1.2,1.5,1.8,2.7,1.8c0.4,0,0.9-0.1,1.4-0.3s0.9-0.4,1.2-0.6C140.2,44.8,140.3,44.4,140.3,43.9z"/>
	<path class="st0" d="M145.2,53.8c-0.3,0-0.5-0.1-0.7-0.3c-0.3-0.3-0.4-0.6-0.4-1.1c0-0.4,0.1-0.7,0.3-1c0.2-0.3,0.5-0.4,0.8-0.4
		c0.3,0,0.6,0.1,0.8,0.4c0.2,0.3,0.4,0.6,0.4,1c0,0.4-0.1,0.7-0.4,1C145.7,53.7,145.4,53.8,145.2,53.8z"/>
	<path class="st0" d="M162.6,42.2h-0.5c-0.3-1.4-0.8-2.5-1.5-3.3c-0.8-0.9-1.8-1.3-3-1.3c-0.5,0-1.1,0.1-1.6,0.4
		c-0.5,0.3-1,0.6-1.5,1.1c-0.5,0.6-0.9,1.3-1.2,2.1c-0.4,1.1-0.6,2.4-0.6,4.1c0,2.5,0.5,4.4,1.5,5.7c0.9,1.2,2.1,1.8,3.5,1.8
		c0.8,0,1.6-0.2,2.4-0.6c0.7-0.4,1.5-1,2.3-1.9l0.4,0.5c-0.2,0.3-0.4,0.6-0.6,0.8c-0.5,0.6-1.2,1.1-1.8,1.5c-1,0.6-2,0.8-3.2,0.8
		c-1.9,0-3.4-0.7-4.7-2c-1.5-1.6-2.2-3.8-2.2-6.7c0-2.7,0.7-4.8,2.2-6.4c1.3-1.5,2.9-2.2,4.8-2.2c0.6,0,1.2,0.1,1.8,0.3
		c0.6,0.2,1.2,0.4,1.8,0.6c0.2,0,0.4-0.1,0.6-0.2c0.2-0.1,0.3-0.3,0.3-0.6h0.4L162.6,42.2z"/>
	<path class="st0" d="M171,53.8c-1.9,0-3.5-0.8-4.8-2.3c-1.3-1.6-2-3.7-2-6.3c0-2.7,0.7-4.9,2.1-6.5c1.3-1.5,2.8-2.2,4.6-2.2
		c1.8,0,3.4,0.7,4.6,2.2c1.4,1.6,2.1,3.8,2.1,6.5c0,2.6-0.7,4.7-2,6.3C174.5,53.1,172.9,53.8,171,53.8z M171,52.9
		c1.2,0,2.3-0.6,3-1.8c0.9-1.4,1.3-3.3,1.3-5.9c0-2.6-0.5-4.6-1.4-6c-0.8-1.2-1.8-1.7-3-1.7c-1.2,0-2.2,0.6-3,1.7
		c-0.9,1.4-1.4,3.4-1.4,6c0,2.6,0.4,4.6,1.3,5.9C168.7,52.3,169.7,52.9,171,52.9z"/>
	<path class="st0" d="M196.2,37.3v0.5c-0.7,0-1.2,0.1-1.4,0.4c-0.3,0.3-0.4,0.9-0.4,1.8v11.1c0,0.9,0.1,1.5,0.4,1.8
		c0.2,0.3,0.7,0.4,1.4,0.4v0.5h-5.8v-0.5c0.8,0,1.3-0.2,1.5-0.5c0.2-0.3,0.3-1,0.3-2.1V39.6L187,53.8h-0.3l-5.1-13.7l0,10
		c0,1.3,0.1,2.1,0.4,2.6c0.3,0.4,0.8,0.6,1.5,0.6v0.5h-4.8v-0.5c0.8,0,1.3-0.2,1.6-0.6c0.3-0.4,0.4-1.3,0.4-2.6V40
		c0-1-0.1-1.6-0.4-1.8c-0.3-0.3-0.8-0.4-1.6-0.4v-0.5h4.1l4.7,12.7l4.6-12.7H196.2z"/>
	<path class="st0" d="M54.9,34.4c0,8.7-2.4,16-7.8,22C36.8,68,21.3,67.9,10.6,56.2c-11.2-12.3-9.8-34.5,2.9-45.3
		C25,1.1,41.1,3.7,49.7,16.8C53.3,22.4,55,28.5,54.9,34.4z M29,6.4c-5.7,0-10.9,2.1-15.2,6.1C2,23.5,1.2,43.8,12.1,55.8
		c9.3,10.2,23.5,10.5,33.2,0.7c11.1-11.2,11.1-31.5,0.1-42.8C40.8,9,35.5,6.4,29,6.4z"/>
	<path class="st0" d="M43,19.6c-1-1.1-5.1,7.6-6.4,14c-0.9,4.4-1.1,12.8-1.3,16.6c0,0.8-1.1,0.9-1.8,1.2c-0.5,0.2-2.6,0.4-2.6-0.2
		c0-5.6,0.6-29.1,7-35.4l-0.4-0.2c-3.1-1.6-6-3.6-8.5-6.1L29,9.4l-0.1,0.1c-2.5,2.5-5.3,4.5-8.5,6.1l-0.4,0.2c6.4,6.4,7,29.8,7,35.4
		c0,0.6-2.1,0.4-2.6,0.2c-0.7-0.3-1.8-0.5-1.8-1.2c-0.2-3.8-0.4-12.1-1.3-16.6c-1.3-6.4-5.4-15.1-6.4-14
		C4.8,31.1,8.4,47.2,15.1,54.5c3.8,4.1,8.9,6.1,13.9,6.1c5,0,10.1-2,13.9-6.1C49.5,47.2,53.2,31.1,43,19.6z M13.3,33.9
		c3,2.3,7.1,10.3,6.8,15C15,46.4,12.4,38.7,13.3,33.9z M37.9,48.9c-0.3-4.7,3.8-12.7,6.8-15C45.5,38.7,43,46.4,37.9,48.9z"/>
	<path class="st0" d="M98.5,16.5v1.1c-1.7,0-2.9,0.3-3.8,0.8c-1.2,0.7-2.7,2.2-4.6,4.5l-8.2,10.3l10.9,15.4c1.1,1.6,2.1,2.7,2.8,3.2
		c0.8,0.5,1.9,0.8,3.4,1v1.1H82.2v-1.1c1.3,0,2.2,0,2.6-0.1c1.2-0.2,1.7-0.8,1.7-1.8c0-0.5-0.4-1.3-1.1-2.5
		c-0.5-0.8-1.1-1.8-1.8-2.8l-5.3-7.9l-6.8,8.4c-0.9,1.2-1.6,2-1.9,2.5c-0.7,1-1,1.7-1,2.3c0,0.8,0.4,1.3,1.2,1.6
		c0.8,0.3,1.8,0.5,3.1,0.5v1.1H59.8v-1.1c1.7,0,3.2-0.7,4.5-2c0.4-0.4,1.7-1.9,3.7-4.5l8.9-10.9l-6.2-9c-2.7-3.9-4.7-6.4-6-7.5
		c-0.9-0.8-2.3-1.2-4.2-1.4v-1.1h17v1.1c-1.5,0-2.4,0-2.6,0.1c-1.1,0.2-1.7,0.8-1.7,1.7c0,0.6,0.3,1.5,1,2.6
		c0.7,1.2,1.9,3.1,3.7,5.7l2.4,3.3l6.4-7.8c0.5-0.6,0.9-1.1,1.2-1.6c0.7-0.9,1-1.7,1-2.2c0-0.8-0.3-1.3-1-1.5
		c-0.7-0.2-1.7-0.3-2.9-0.3v-1.1H98.5z"/>
	<path class="st0" d="M102.8,53.8l-0.1-0.5c2.1-0.4,3.8-1.3,5.2-2.7c1.3-1.4,2.2-3,2.7-5v-0.1c-0.6,0.5-1.2,0.8-1.9,1.1
		c-0.7,0.2-1.4,0.4-2,0.4c-1.6,0-2.8-0.6-3.7-1.8c-0.7-1-1.1-2.1-1.1-3.4c0-1.8,0.5-3.3,1.5-4.5c1-1.2,2.3-1.8,4-1.8
		c1.6,0,3,0.7,4.1,2c1.1,1.4,1.6,3.1,1.6,5.3c0,3-0.9,5.5-2.7,7.6C108.6,52.7,106,53.8,102.8,53.8z M110.8,43.9v-1
		c0-2.3-0.3-3.9-0.8-5c-0.6-1.1-1.5-1.7-2.7-1.7c-1,0-1.8,0.5-2.2,1.5c-0.4,0.8-0.6,1.8-0.6,3.1c0,1.3,0.2,2.4,0.6,3.3
		c0.6,1.2,1.5,1.8,2.7,1.8c0.4,0,0.9-0.1,1.4-0.3s0.9-0.4,1.2-0.6C110.6,44.8,110.8,44.4,110.8,43.9z"/>
	<path class="st0" d="M117.6,53.8l-0.1-0.5c2.1-0.4,3.8-1.3,5.2-2.7c1.3-1.4,2.2-3,2.7-5v-0.1c-0.6,0.5-1.2,0.8-1.9,1.1
		c-0.7,0.2-1.4,0.4-2,0.4c-1.6,0-2.8-0.6-3.7-1.8c-0.7-1-1.1-2.1-1.1-3.4c0-1.8,0.5-3.3,1.5-4.5c1-1.2,2.3-1.8,4-1.8
		c1.6,0,3,0.7,4.1,2c1.1,1.4,1.6,3.1,1.6,5.3c0,3-0.9,5.5-2.7,7.6C123.4,52.7,120.8,53.8,117.6,53.8z M125.6,43.9v-1
		c0-2.3-0.3-3.9-0.8-5c-0.6-1.1-1.5-1.7-2.7-1.7c-1,0-1.8,0.5-2.2,1.5c-0.4,0.8-0.6,1.8-0.6,3.1c0,1.3,0.2,2.4,0.6,3.3
		c0.6,1.2,1.5,1.8,2.7,1.8c0.4,0,0.9-0.1,1.4-0.3c0.5-0.2,0.9-0.4,1.2-0.6C125.4,44.8,125.6,44.4,125.6,43.9z"/>
	<path class="st0" d="M132.4,53.8l-0.1-0.5c2.1-0.4,3.8-1.3,5.2-2.7c1.3-1.4,2.2-3,2.7-5v-0.1c-0.6,0.5-1.2,0.8-1.9,1.1
		c-0.7,0.2-1.4,0.4-2,0.4c-1.6,0-2.8-0.6-3.7-1.8c-0.7-1-1.1-2.1-1.1-3.4c0-1.8,0.5-3.3,1.5-4.5c1-1.2,2.3-1.8,4-1.8
		c1.6,0,3,0.7,4.1,2c1.1,1.4,1.6,3.1,1.6,5.3c0,3-0.9,5.5-2.7,7.6C138.2,52.7,135.6,53.8,132.4,53.8z M140.3,43.9v-1
		c0-2.3-0.3-3.9-0.8-5c-0.6-1.1-1.5-1.7-2.7-1.7c-1,0-1.8,0.5-2.2,1.5c-0.4,0.8-0.6,1.8-0.6,3.1c0,1.3,0.2,2.4,0.6,3.3
		c0.6,1.2,1.5,1.8,2.7,1.8c0.4,0,0.9-0.1,1.4-0.3s0.9-0.4,1.2-0.6C140.2,44.8,140.3,44.4,140.3,43.9z"/>
	<path class="st0" d="M145.2,53.8c-0.3,0-0.5-0.1-0.7-0.3c-0.3-0.3-0.4-0.6-0.4-1.1c0-0.4,0.1-0.7,0.3-1c0.2-0.3,0.5-0.4,0.8-0.4
		c0.3,0,0.6,0.1,0.8,0.4c0.2,0.3,0.4,0.6,0.4,1c0,0.4-0.1,0.7-0.4,1C145.7,53.7,145.4,53.8,145.2,53.8z"/>
	<path class="st0" d="M162.6,42.2h-0.5c-0.3-1.4-0.8-2.5-1.5-3.3c-0.8-0.9-1.8-1.3-3-1.3c-0.5,0-1.1,0.1-1.6,0.4
		c-0.5,0.3-1,0.6-1.5,1.1c-0.5,0.6-0.9,1.3-1.2,2.1c-0.4,1.1-0.6,2.4-0.6,4.1c0,2.5,0.5,4.4,1.5,5.7c0.9,1.2,2.1,1.8,3.5,1.8
		c0.8,0,1.6-0.2,2.4-0.6c0.7-0.4,1.5-1,2.3-1.9l0.4,0.5c-0.2,0.3-0.4,0.6-0.6,0.8c-0.5,0.6-1.2,1.1-1.8,1.5c-1,0.6-2,0.8-3.2,0.8
		c-1.9,0-3.4-0.7-4.7-2c-1.5-1.6-2.2-3.8-2.2-6.7c0-2.7,0.7-4.8,2.2-6.4c1.3-1.5,2.9-2.2,4.8-2.2c0.6,0,1.2,0.1,1.8,0.3
		c0.6,0.2,1.2,0.4,1.8,0.6c0.2,0,0.4-0.1,0.6-0.2c0.2-0.1,0.3-0.3,0.3-0.6h0.4L162.6,42.2z"/>
	<path class="st0" d="M171,53.8c-1.9,0-3.5-0.8-4.8-2.3c-1.3-1.6-2-3.7-2-6.3c0-2.7,0.7-4.9,2.1-6.5c1.3-1.5,2.8-2.2,4.6-2.2
		c1.8,0,3.4,0.7,4.6,2.2c1.4,1.6,2.1,3.8,2.1,6.5c0,2.6-0.7,4.7-2,6.3C174.5,53.1,172.9,53.8,171,53.8z M171,52.9
		c1.2,0,2.3-0.6,3-1.8c0.9-1.4,1.3-3.3,1.3-5.9c0-2.6-0.5-4.6-1.4-6c-0.8-1.2-1.8-1.7-3-1.7c-1.2,0-2.2,0.6-3,1.7
		c-0.9,1.4-1.4,3.4-1.4,6c0,2.6,0.4,4.6,1.3,5.9C168.7,52.3,169.7,52.9,171,52.9z"/>
	<path class="st0" d="M196.2,37.3v0.5c-0.7,0-1.2,0.1-1.4,0.4c-0.3,0.3-0.4,0.9-0.4,1.8v11.1c0,0.9,0.1,1.5,0.4,1.8
		c0.2,0.3,0.7,0.4,1.4,0.4v0.5h-5.8v-0.5c0.8,0,1.3-0.2,1.5-0.5c0.2-0.3,0.3-1,0.3-2.1V39.6L187,53.8h-0.3l-5.1-13.7l0,10
		c0,1.3,0.1,2.1,0.4,2.6c0.3,0.4,0.8,0.6,1.5,0.6v0.5h-4.8v-0.5c0.8,0,1.3-0.2,1.6-0.6c0.3-0.4,0.4-1.3,0.4-2.6V40
		c0-1-0.1-1.6-0.4-1.8c-0.3-0.3-0.8-0.4-1.6-0.4v-0.5h4.1l4.7,12.7l4.6-12.7H196.2z"/>
	<path class="st0" d="M54.9,34.4c0,8.7-2.4,16-7.8,22C36.8,68,21.3,67.9,10.6,56.2c-11.2-12.3-9.8-34.5,2.9-45.3
		C25,1.1,41.1,3.7,49.7,16.8C53.3,22.4,55,28.5,54.9,34.4z M29,6.4c-5.7,0-10.9,2.1-15.2,6.1C2,23.5,1.2,43.8,12.1,55.8
		c9.3,10.2,23.5,10.5,33.2,0.7c11.1-11.2,11.1-31.5,0.1-42.8C40.8,9,35.5,6.4,29,6.4z"/>
	<path class="st0" d="M43,19.6c-1-1.1-5.1,7.6-6.4,14c-0.9,4.4-1.1,12.8-1.3,16.6c0,0.8-1.1,0.9-1.8,1.2c-0.5,0.2-2.6,0.4-2.6-0.2
		c0-5.6,0.6-29.1,7-35.4l-0.4-0.2c-3.1-1.6-6-3.6-8.5-6.1L29,9.4l-0.1,0.1c-2.5,2.5-5.3,4.5-8.5,6.1l-0.4,0.2c6.4,6.4,7,29.8,7,35.4
		c0,0.6-2.1,0.4-2.6,0.2c-0.7-0.3-1.8-0.5-1.8-1.2c-0.2-3.8-0.4-12.1-1.3-16.6c-1.3-6.4-5.4-15.1-6.4-14
		C4.8,31.1,8.4,47.2,15.1,54.5c3.8,4.1,8.9,6.1,13.9,6.1c5,0,10.1-2,13.9-6.1C49.5,47.2,53.2,31.1,43,19.6z M13.3,33.9
		c3,2.3,7.1,10.3,6.8,15C15,46.4,12.4,38.7,13.3,33.9z M37.9,48.9c-0.3-4.7,3.8-12.7,6.8-15C45.5,38.7,43,46.4,37.9,48.9z"/>
	<g>
		<path class="st0" d="M107,19.1l-1.4,5.5c-0.4,1.5-0.6,2.6-0.6,3.3c0,0.7,0.1,1.3,0.2,1.9c0.1,0.6,0.2,1,0.2,1.4
			c0,0.8-0.3,1.2-0.8,1.2c-0.5,0-0.9-0.1-1.2-0.4c-0.3-0.3-0.5-0.6-0.5-1c0-0.1,0-0.2,0-0.3c0.2-1.2,0.4-2,0.4-2.4
			c0-0.5-0.1-0.8-0.3-1c-0.2-0.2-0.7-0.3-1.3-0.5l0-0.5c0.3,0,0.5,0,0.7,0c0.6,0,1-0.1,1.3-0.3c0.3-0.2,0.6-0.7,0.9-1.6l2.1-5.4
			L107,19.1z M102,19.1c1.8,1,2.6,1.7,2.6,2.3c0,0.2-0.1,0.5-0.3,0.8c-0.2,0.4-0.4,0.6-0.6,0.6c-0.2,0-0.3,0-0.3-0.1
			c-0.1-0.1-0.1-0.2-0.1-0.4c-0.2-0.7-0.4-1.2-0.6-1.7c-0.2-0.4-0.5-0.9-0.9-1.3L102,19.1z M103.4,15.4c1.2,0.6,2,1,2.4,1.3
			c0.4,0.3,0.6,0.6,0.6,0.9c0,0.3-0.1,0.5-0.2,0.8c-0.1,0.3-0.3,0.5-0.4,0.6c-0.2,0.1-0.3,0.2-0.5,0.2c-0.1,0-0.3-0.2-0.4-0.7
			c-0.2-0.6-0.4-1-0.6-1.3c-0.2-0.3-0.6-0.8-1.1-1.5L103.4,15.4z M112.4,27.8c-0.5,1.7-1.2,2.9-2.2,3.5c-1,0.6-2.7,1.1-5.2,1.5
			l0-0.3c1.9-0.6,3.3-1.2,4.1-1.9c0.9-0.7,1.4-1.6,1.7-2.8h-4c-0.3,0-0.6,0-0.8,0.1l-0.3-0.9c0.3,0.1,0.6,0.1,1,0.1h4.3
			c0.1-0.5,0.2-1,0.2-1.7c0.8,0.2,1.3,0.3,1.6,0.5c0.3,0.1,0.5,0.2,0.5,0.3c0,0.1-0.1,0.2-0.3,0.3c-0.2,0.1-0.3,0.3-0.4,0.6h3.8
			l0.7-0.9c0.1-0.1,0.2-0.2,0.4-0.2c0.1,0,0.3,0.1,0.5,0.2c0.2,0.1,0.4,0.3,0.6,0.5c0.3,0.2,0.4,0.4,0.6,0.6
			c0.1,0.2,0.2,0.3,0.2,0.4s-0.1,0.1-0.4,0.1h-5.8c1.1,1.6,3.2,2.7,6.3,3.3v0.4c-0.5,0-1,0.1-1.5,0.3c-0.4,0.2-0.7,0.4-0.9,0.7
			c-0.1,0.1-0.1,0.2-0.2,0.2c-0.2,0-0.7-0.3-1.5-0.9c-0.9-0.6-1.5-1.2-1.9-1.8c-0.4-0.6-0.7-1.2-0.8-2H112.4z M110.5,17.2
			c0.3-0.8,0.5-1.6,0.6-2.5c0.4,0.1,0.7,0.2,1.2,0.4c0.4,0.1,0.7,0.2,0.7,0.3c0.1,0.1,0.1,0.1,0.1,0.2s-0.1,0.1-0.3,0.2
			c-0.2,0-0.4,0.2-0.6,0.4c-0.2,0.2-0.5,0.6-0.9,1.1h4.6l0.4-0.5c0.1-0.1,0.2-0.2,0.3-0.2c0.1,0,0.4,0.2,0.9,0.5
			c0.5,0.3,0.7,0.6,0.7,0.7c0,0.1-0.2,0.3-0.7,0.5v5c0,0.6,0,0.9,0,1.2l0,0.6c0,0.1,0,0.2-0.1,0.2c0,0.1-0.2,0.1-0.3,0.2
			c-0.2,0.1-0.4,0.2-0.6,0.3c-0.2,0.1-0.4,0.1-0.4,0.1c-0.1,0-0.1-0.1-0.1-0.2v-7.8h-7.4v8c0,0.2-0.1,0.3-0.2,0.4
			c-0.1,0.1-0.3,0.2-0.6,0.3c-0.3,0.1-0.5,0.2-0.5,0.2s-0.1-0.1-0.1-0.2c0.1-0.6,0.1-1.3,0.1-2v-6.5c0-0.4,0-0.9-0.1-1.6
			c0.5,0.2,1,0.4,1.5,0.7H110.5z M112.8,21.8h1.2l0.4-0.6c0.1-0.1,0.1-0.2,0.2-0.2c0.1,0,0.3,0.2,0.7,0.5c0.3,0.4,0.5,0.6,0.5,0.7
			c0,0.1-0.1,0.1-0.3,0.1h-2.7v0.3c1,0.3,1.7,0.6,2,0.9c0.3,0.3,0.5,0.5,0.5,0.8c0,0.3,0,0.6-0.1,0.8s-0.2,0.3-0.4,0.3
			c-0.2,0-0.4-0.2-0.6-0.7c-0.4-0.8-0.8-1.4-1.3-1.8l0,1.8c0,0.1,0,0.2,0,0.2c0,0-0.1,0.1-0.3,0.2s-0.3,0.1-0.6,0.2s-0.3,0-0.4,0
			s-0.1-0.1-0.1-0.3l0.1-2.1c-0.8,1-1.7,1.8-2.7,2.5l-0.2-0.3c1-1.1,1.7-2,2.1-2.9h-0.8c-0.3,0-0.6,0-0.8,0.1l-0.3-0.8
			c0.3,0.1,0.6,0.1,1,0.1h1.8v-1.6c0-0.8,0-1.5-0.1-2.1c0.7,0.1,1.2,0.2,1.4,0.3c0.2,0.1,0.3,0.2,0.3,0.2c0,0.1-0.1,0.3-0.3,0.4
			V21.8z M109.5,18.5c1.1,0.7,1.6,1.3,1.6,1.8c0,0.2-0.1,0.5-0.3,0.7c-0.2,0.3-0.4,0.4-0.6,0.4s-0.3-0.1-0.3-0.2s-0.1-0.3-0.1-0.5
			c0-0.8-0.2-1.5-0.5-2.1L109.5,18.5z M114.1,18.6c1,0.4,1.4,0.6,1.4,0.8c0,0.1-0.1,0.1-0.2,0.2c-0.1,0-0.3,0.2-0.6,0.4
			c-0.2,0.2-0.7,0.7-1.4,1.6l-0.3-0.2C113.6,20.3,113.9,19.3,114.1,18.6z"/>
		<path class="st0" d="M122.6,18.1c1.6,0.4,2.4,0.8,2.4,0.9c0,0.1-0.2,0.2-0.5,0.4v12.2c0,0.1,0,0.2-0.1,0.2c0,0-0.2,0.1-0.4,0.2
			c-0.2,0.1-0.5,0.2-0.8,0.3c-0.3,0.1-0.5,0.1-0.5,0.1c-0.1,0-0.1,0-0.1-0.1l0.1-1.1c0-0.5,0-1,0-1.6v-10
			C122.6,19.1,122.6,18.6,122.6,18.1z M124.1,14.7c1.4,0.7,2.3,1.3,2.8,1.8c0.5,0.4,0.7,0.9,0.7,1.4c0,0.5-0.1,0.9-0.4,1.2
			c-0.3,0.3-0.5,0.4-0.7,0.4c-0.2,0-0.3-0.1-0.4-0.2c-0.1-0.1-0.2-0.3-0.2-0.6c-0.3-1.5-0.9-2.7-1.9-3.7L124.1,14.7z M135,16.7
			l0.6-1c0.1-0.1,0.1-0.1,0.2-0.1c0.1,0,0.3,0.1,0.8,0.4c0.4,0.3,0.8,0.5,1,0.7c0.2,0.2,0.4,0.3,0.4,0.4c0,0.2-0.3,0.4-0.9,0.6v12.1
			c0,0.6,0,1-0.1,1.3c-0.1,0.3-0.2,0.5-0.4,0.7c-0.2,0.2-0.6,0.4-1.1,0.6s-0.9,0.3-1,0.3c-0.1,0-0.2-0.1-0.3-0.3
			c-0.1-0.3-0.2-0.6-0.4-0.8c-0.2-0.2-0.4-0.4-0.8-0.6c-0.4-0.2-1-0.4-1.7-0.6l0.1-0.4c1.7,0.4,2.7,0.6,3.1,0.6s0.6,0,0.7-0.1
			c0.1-0.1,0.2-0.3,0.2-0.5V17.3h-5.4c-0.2,0-0.5,0-0.7,0.1l-0.5-0.8c0.3,0.1,0.6,0.1,1,0.1H135z"/>
		<path class="st0" d="M142.4,25.7c0.4,0.2,0.7,0.4,1.1,0.6c0.3,0.2,0.5,0.3,0.6,0.4c0,0,0,0.1,0,0.1c0,0.1-0.1,0.2-0.3,0.2
			c-0.1,0-0.2,0.1-0.3,0.1c-0.1,0.1-0.2,0.2-0.3,0.5c-0.6,1.1-1.6,2.3-2.9,3.6l-0.3-0.3C141.1,29.4,141.9,27.6,142.4,25.7z
			 M145.6,21.8c0.5-1.4,0.8-2.7,1-3.7c0.9,0.4,1.4,0.7,1.6,0.8c0.2,0.1,0.3,0.2,0.3,0.3c0,0.1-0.1,0.1-0.3,0.2
			c-0.2,0-0.4,0.2-0.5,0.4c-0.1,0.2-0.6,1-1.4,2.1h1.3l0.8-0.9c0.1-0.1,0.2-0.2,0.3-0.2c0.1,0,0.4,0.2,0.9,0.7
			c0.5,0.5,0.8,0.7,0.8,0.9c0,0.1-0.1,0.2-0.4,0.2H146v2.3h1.1l0.6-0.9c0.1-0.2,0.2-0.2,0.3-0.2c0.1,0,0.3,0.1,0.6,0.3
			c0.3,0.2,0.6,0.4,0.8,0.7s0.4,0.4,0.4,0.5c0,0.2-0.2,0.3-0.5,0.3H146v4.4c0,0.7-0.1,1.3-0.2,1.5c-0.1,0.3-0.4,0.6-0.8,0.8
			c-0.5,0.3-0.8,0.4-0.9,0.4c-0.1,0-0.2-0.1-0.3-0.3c-0.1-0.4-0.3-0.7-0.4-0.8c-0.2-0.2-0.6-0.4-1.3-0.7v-0.3
			c0.9,0.2,1.5,0.3,1.8,0.3c0.3,0,0.4-0.1,0.5-0.2c0.1-0.1,0.1-0.3,0.1-0.6v-4.5H142c-0.3,0-0.6,0-0.8,0.1l-0.3-0.8
			c0.3,0.1,0.6,0.1,1,0.1h2.7v-2.3h-2.8c-0.3,0-0.6,0-0.8,0.1l-0.3-0.8c0.3,0.1,0.6,0.1,1,0.1H145.6z M144.9,17.4
			c-0.1-0.1-0.2-0.4-0.3-0.8c-0.1-0.4-0.2-0.8-0.4-1.1c-0.2-0.3-0.4-0.6-0.7-0.9l0.2-0.3c0.8,0.3,1.4,0.6,1.9,1
			c0.4,0.4,0.7,0.7,0.7,1c0,0.3-0.2,0.7-0.6,1.1h1.3l0.6-0.9c0.1-0.1,0.2-0.2,0.3-0.2c0.1,0,0.2,0.1,0.4,0.2
			c0.2,0.1,0.4,0.3,0.7,0.6c0.3,0.3,0.5,0.4,0.6,0.5s0.1,0.2,0.1,0.2c0,0.1-0.1,0.2-0.4,0.2h-7.2c-0.3,0-0.6,0-0.8,0.1l-0.3-0.8
			c0.3,0.1,0.6,0.1,1,0.1H144.9z M142.6,18.2c0.8,0.5,1.3,0.9,1.5,1.2c0.3,0.3,0.4,0.6,0.4,0.8c0,0.3-0.1,0.6-0.3,0.9
			c-0.2,0.3-0.3,0.5-0.5,0.5c-0.1,0-0.3,0-0.3-0.1c-0.1-0.1-0.1-0.3-0.2-0.8c-0.1-0.4-0.2-0.8-0.3-1.1c-0.1-0.3-0.3-0.7-0.7-1.2
			L142.6,18.2z M146.6,25.9c0.7,0.4,1.3,0.8,1.8,1.2c0.5,0.4,0.8,0.8,0.8,1.1c0,0.3-0.1,0.6-0.3,1c-0.2,0.3-0.4,0.5-0.6,0.5
			c-0.2,0-0.3-0.2-0.4-0.5c-0.3-1.1-0.8-2.1-1.5-3L146.6,25.9z M152.4,17.3c0.9-0.3,2.3-1,4-2.1c0.9,1.2,1.4,1.9,1.4,2
			c0,0.1,0,0.1-0.1,0.1c-0.1,0-0.2,0-0.4-0.1c-0.2-0.1-0.3-0.1-0.5-0.1s-0.8,0.1-1.9,0.3c-1.1,0.2-2,0.4-2.6,0.4l-0.1,3.8h3.3
			l0.9-1.1c0.1-0.1,0.2-0.2,0.3-0.2c0.1,0,0.4,0.3,1,0.8c0.6,0.5,0.9,0.9,0.9,1c0,0.1-0.1,0.1-0.4,0.1h-2.5v7.7c0,0.6,0,1.1,0,1.3
			l0,0.7c0,0.1,0,0.2-0.1,0.3c-0.1,0.1-0.3,0.2-0.7,0.3c-0.4,0.1-0.6,0.2-0.7,0.2c-0.1,0-0.1-0.1-0.1-0.3V22.4h-1.9
			c-0.1,2.1-0.2,3.5-0.3,4.1c-0.1,0.7-0.3,1.3-0.5,1.9c-0.2,0.6-0.6,1.2-1.1,1.9c-0.5,0.6-1.3,1.4-2.3,2.3l-0.4-0.3
			c0.8-0.8,1.4-1.6,1.8-2.3c0.4-0.7,0.7-1.5,0.9-2.4c0.2-0.9,0.3-1.9,0.4-2.9c0.1-1,0.1-2.4,0.1-4.1c0-1.7,0-3.1,0-4.1
			C151.2,16.7,151.8,17,152.4,17.3z"/>
		<path class="st0" d="M172.3,17h2.6l0.8-1c0.1-0.1,0.2-0.2,0.3-0.2c0.1,0,0.4,0.3,1,0.7c0.5,0.5,0.8,0.8,0.8,0.9
			c0,0.1-0.1,0.2-0.3,0.2h-5.1l0,1.5c0,0.2,0,0.3-0.1,0.4c-0.1,0.1-0.2,0.2-0.5,0.3c-0.3,0.1-0.5,0.2-0.8,0.2
			c-0.1,0-0.2-0.1-0.2-0.3v-2H167V19c0,0.2,0,0.3-0.1,0.4c-0.1,0.1-0.2,0.2-0.5,0.3c-0.3,0.1-0.5,0.2-0.7,0.2
			c-0.1,0-0.2-0.1-0.2-0.4c-0.2,0-0.4,0.3-0.7,0.7h9l0.4-0.8c0.1-0.1,0.1-0.2,0.2-0.2c0.1,0,0.4,0.2,1.1,0.5
			c0.6,0.3,0.9,0.6,0.9,0.7s-0.2,0.3-0.7,0.6c0,1.7,0,3.5,0,5.7c0,2.1-0.1,3.4-0.1,3.8c0,0.4-0.1,0.8-0.3,1.1
			c-0.2,0.3-0.5,0.6-1,0.9c-0.5,0.3-0.8,0.5-0.9,0.5c-0.1,0-0.2-0.1-0.3-0.4c-0.1-0.3-0.2-0.5-0.4-0.7c-0.2-0.2-0.5-0.4-0.9-0.6
			c-0.1,0.2-0.4,0.4-0.7,0.6c-0.4,0.2-0.6,0.3-0.7,0.3c-0.1,0-0.1-0.1-0.2-0.2c-0.1-0.3-0.2-0.5-0.4-0.7c-0.2-0.2-0.6-0.4-1.2-0.7
			l0.1-0.3c0.7,0.2,1.2,0.2,1.4,0.2c0.2,0,0.3,0,0.4-0.1c0.1-0.1,0.1-0.2,0.1-0.4v-1.3H168v0.8l0,1.6c0,0.2,0,0.3-0.1,0.3
			c0,0-0.2,0.1-0.6,0.3c-0.3,0.1-0.6,0.2-0.7,0.2c-0.1,0-0.1-0.1-0.1-0.2l0-0.7c0-0.3,0-0.6,0-1.1v-1.1h-2.4v2.8
			c0,0.2,0,0.3-0.1,0.4c-0.1,0.1-0.3,0.2-0.6,0.3c-0.3,0.1-0.5,0.2-0.7,0.2c-0.1,0-0.1-0.1-0.1-0.3c0-0.5,0.1-1,0.1-1.5v-5
			c0-0.6,0-1.2-0.1-1.8c0.6,0.2,1.3,0.4,1.9,0.7h2v-1h-3.1c-0.4,0-0.7,0-0.8,0.1l-0.3-0.6c-0.7,0.6-1.5,1.3-2.4,1.9l-0.2-0.2
			c2-2.2,3.4-4.3,4.1-6.4c0.7,0.2,1.2,0.5,1.6,0.9c0-0.4,0-0.8,0-1.4h-4.6c-0.3,0-0.6,0-0.8,0.1l-0.4-0.9c0.3,0.1,0.6,0.1,1,0.1h4.9
			v-0.8c0-0.6,0-1.1-0.1-1.4c1.4,0.4,2.1,0.6,2.1,0.8c0,0.1-0.2,0.2-0.6,0.4V17h3.7V16c0-0.4,0-0.9-0.1-1.4c0.9,0.2,1.4,0.4,1.7,0.5
			c0.3,0.1,0.4,0.2,0.4,0.3c0,0.1-0.2,0.3-0.6,0.5V17z M164.3,20.6c-0.6,0.8-1.2,1.5-1.8,2.1c0.3,0,0.5,0.1,0.8,0.1h3.3
			c0-1,0-1.6,0-2.1c0.6,0.1,1,0.2,1.3,0.3c0.3,0.1,0.4,0.1,0.5,0.2s0.1,0.1,0.1,0.1c0,0.1-0.1,0.2-0.4,0.3v1.1h3.6l0.6-0.9
			c0.1-0.1,0.2-0.2,0.2-0.2c0.1,0,0.4,0.2,0.8,0.6c0.4,0.4,0.7,0.7,0.7,0.8c0,0.1-0.1,0.1-0.3,0.1H168v1h2.4l0.3-0.5
			c0-0.1,0.1-0.1,0.2-0.1c0.1,0,0.2,0.1,0.5,0.2c0.3,0.2,0.5,0.3,0.7,0.5c0.2,0.1,0.3,0.2,0.3,0.3c0,0.1-0.2,0.2-0.5,0.4v5.1
			c0,0.2,0,0.4-0.1,0.6c0.3,0.1,0.7,0.1,0.9,0.1s0.5-0.1,0.7-0.2c0.2-0.1,0.3-0.3,0.3-0.6c0.1-0.3,0.1-1.4,0.2-3.2
			c0-1.8,0.1-3.9,0-6.2H164.3z M164.2,24.9v1.3h2.4v-1.3H164.2z M164.2,26.7v1.3h2.4v-1.3H164.2z M168,24.9v1.3h2.6v-1.3H168z
			 M168,26.7v1.3h2.6v-1.3H168z M168.8,20.8c0.8,0.1,1.4,0.2,1.8,0.3s0.6,0.3,0.6,0.6c0,0.1,0,0.3-0.1,0.5c-0.1,0.2-0.2,0.3-0.4,0.3
			c-0.2,0-0.3-0.1-0.5-0.2c-0.3-0.4-0.8-0.8-1.5-1.2L168.8,20.8z"/>
		<path class="st0" d="M183.8,26.1c0.3,0.2,0.7,0.4,1,0.6c0.3,0.2,0.6,0.4,0.7,0.5c0.1,0.1,0.2,0.2,0.2,0.3c0,0.1-0.1,0.2-0.3,0.2
			c-0.2,0-0.3,0.1-0.4,0.1c-0.1,0.1-0.5,0.4-1.1,1.1c-0.6,0.6-1.3,1.2-1.9,1.7s-1.6,1.1-2.9,1.8l-0.2-0.3c1.4-1.4,2.5-2.4,3.1-3.2
			C182.7,28,183.3,27.1,183.8,26.1z M187.8,18.1c-0.3-1.4-0.8-2.4-1.4-3l0.2-0.3c2,0.3,3,0.9,3,1.7c0,0.2-0.1,0.5-0.3,0.8
			c-0.2,0.3-0.5,0.6-0.9,0.8h5.3l0.9-1.3c0.1-0.2,0.3-0.3,0.4-0.3c0.1,0,0.3,0.1,0.4,0.2c0.2,0.1,0.4,0.4,0.8,0.7
			c0.3,0.3,0.6,0.6,0.7,0.7s0.2,0.3,0.2,0.4c0,0.1-0.1,0.2-0.4,0.2h-16.3c-0.3,0-0.6,0-0.8,0.1l-0.3-0.8c0.3,0.1,0.6,0.1,1,0.1
			H187.8z M185,20.6h6.3l0.5-0.7c0.1-0.1,0.2-0.2,0.2-0.2c0.1,0,0.5,0.2,1,0.5c0.5,0.3,0.8,0.5,0.9,0.6c0.1,0.1,0.1,0.1,0.1,0.2
			c0,0.1-0.3,0.4-0.9,0.7v2.7l0,0.9c0,0.1,0,0.2-0.1,0.3c-0.1,0.1-0.3,0.1-0.6,0.2c-0.3,0.1-0.5,0.1-0.7,0.1c-0.1,0-0.2,0-0.2-0.1
			c0-0.1,0-0.2,0-0.3v-0.5H189v5.2c0,1-0.1,1.6-0.3,1.9c-0.2,0.3-0.5,0.5-1,0.6c-0.5,0.2-0.7,0.2-0.8,0.2c-0.1,0-0.2-0.1-0.3-0.3
			c-0.1-0.4-0.3-0.8-0.6-1c-0.3-0.2-0.9-0.5-1.8-0.8l0-0.3c1.3,0.2,2.1,0.3,2.4,0.3c0.3,0,0.5,0,0.6-0.1c0.1-0.1,0.1-0.2,0.1-0.4
			v-5.2h-2.8c0,0.3,0,0.5-0.1,0.5c-0.1,0.1-0.3,0.2-0.6,0.3c-0.4,0.1-0.6,0.2-0.7,0.2s-0.2-0.1-0.2-0.3c0-0.4,0.1-0.9,0.1-1.4v-3.2
			c0-0.5,0-1.1-0.1-1.6C183.9,20,184.6,20.4,185,20.6z M191.6,24.5v-3.4h-7.1v3.4H191.6z M190,26.4c1.4,0.5,2.7,1.1,3.8,1.8
			c1.2,0.6,1.7,1.3,1.7,2.1c0,0.4-0.1,0.8-0.3,1.1c-0.2,0.4-0.4,0.5-0.6,0.5c-0.1,0-0.2,0-0.3-0.1c-0.1-0.1-0.2-0.2-0.3-0.5
			c-0.6-1-1.2-1.8-1.8-2.5c-0.6-0.7-1.5-1.4-2.5-2.2L190,26.4z"/>
	</g>
</g>
</svg>
