<svg id="圖層_1" data-name="圖層 1" xmlns="http://www.w3.org/2000/svg" viewBox="0 0 184.55 255.79"><defs><style>.cls-1{fill:#999;}</style></defs><title>sj</title><path class="cls-1" d="M198.22,198.56H57.78V22.15H198.22V198.56h0ZM71,185.33H185V35.39H71Zm68.69,35a10.82,10.82,0,1,1-10.82-10.83,10.82,10.82,0,0,1,10.82,10.83m58.08,35.55H58.22A22.52,22.52,0,0,1,35.73,233.4V22.6A22.52,22.52,0,0,1,58.22.1H197.78A22.52,22.52,0,0,1,220.27,22.6V233.4a22.52,22.52,0,0,1-22.49,22.49ZM58.22,13.33A9.27,9.27,0,0,0,49,22.6V233.4a9.27,9.27,0,0,0,9.26,9.26H197.78A9.27,9.27,0,0,0,207,233.4V22.6a9.27,9.27,0,0,0-9.26-9.26H58.22Z" transform="translate(-35.73 -0.1)"/></svg>