<svg id="圖層_1" data-name="圖層 1" xmlns="http://www.w3.org/2000/svg" viewBox="0 0 239.06 256.02"><defs><style>.cls-1{fill:#999;}</style></defs><title>ren</title><path class="cls-1" d="M170.91,134.14a74.32,74.32,0,1,0-87.18.5A118.62,118.62,0,0,0,8.47,244.87a11.14,11.14,0,0,0,22.29,0A96.33,96.33,0,0,1,127,148.65c.46,0,.9-.06,1.36-.07.23,0,.45.07.68.07a96.33,96.33,0,0,1,96.22,96.22,11.14,11.14,0,0,0,22.29,0c0-50.58-31.92-93.75-76.62-110.72Zm-96-59.82a52,52,0,1,1,52,52A52.1,52.1,0,0,1,74.93,74.32Z" transform="translate(-8.47 0.01)"/></svg>