<?xml version="1.0" encoding="utf-8"?>
<!-- Generator: Adobe Illustrator 21.0.0, SVG Export Plug-In . SVG Version: 6.00 Build 0)  -->
<svg version="1.1" id="图层_1" xmlns="http://www.w3.org/2000/svg" xmlns:xlink="http://www.w3.org/1999/xlink" x="0px" y="0px"
	 viewBox="0 0 200 200" style="enable-background:new 0 0 200 200;" xml:space="preserve">
<style type="text/css">
	.st0{fill:#f6f0f0;}
</style>
<g>
	<path class="st0" d="M133.9,49.7V18.6c0-2.3-1.7-4.1-3.8-4.1H42.6c-2.1,0-3.8,1.8-3.8,4.1v164.1c0,2.3,1.7,4.1,3.8,4.1h124
		c2.1,0,3.8-1.8,3.8-4.1v-129c0,0,0,0,0,0h-32.9C135.5,53.6,133.9,51.9,133.9,49.7L133.9,49.7z M135.7,136H73.6
		c-2,0-3.7-1.7-3.8-3.8c-0.1-2.2,1.6-4,3.7-4h62.2c1.4-0.1,2.6,0.7,3.3,1.9c0.7,1.2,0.7,2.8,0,4C138.3,135.4,137,136.1,135.7,136
		L135.7,136z M135.7,109.9H73.6c-2,0-3.7-1.7-3.7-3.8c-0.1-2.2,1.6-4,3.7-4h62.2c1.4-0.1,2.6,0.7,3.3,1.9c0.7,1.2,0.7,2.8,0,4
		C138.3,109.3,137,110,135.7,109.9L135.7,109.9z M139.3,78.6c0,1-0.4,2-1.1,2.8c-0.7,0.7-1.6,1.2-2.6,1.1H73.6c-2,0-3.7-1.7-3.8-3.8
		c-0.1-2.2,1.6-4.1,3.7-4.1h62.2C137.7,74.7,139.3,76.4,139.3,78.6L139.3,78.6z M139.3,78.6"/>
	<path class="st0" d="M137.9,19.7v22.8c0,3.6,2.9,6.6,6.6,6.6h22.7c2.2,0,3.2-2.6,1.7-4.1L142,18C140.5,16.4,137.9,17.5,137.9,19.7z
		"/>
</g>
</svg>
