<?xml version="1.0" encoding="utf-8"?>
<!-- Generator: Adobe Illustrator 22.0.1, SVG Export Plug-In . SVG Version: 6.00 Build 0)  -->
<svg version="1.1" id="图层_1" xmlns="http://www.w3.org/2000/svg" xmlns:xlink="http://www.w3.org/1999/xlink" x="0px" y="0px"
	 viewBox="0 0 200 70" style="enable-background:new 0 0 200 70;" xml:space="preserve">
<style type="text/css">
	.st0{fill:#E3B237;}
</style>
<g>
	<path class="st0" d="M98.7,19.4v0.9c-1.4,0-2.4,0.3-3.2,0.7c-1,0.6-2.3,1.9-3.9,3.8l-6.9,8.7l9.2,13c0.9,1.4,1.8,2.3,2.4,2.7
		c0.7,0.4,1.6,0.7,2.9,0.8V51H85V50c1.1,0,1.9,0,2.2-0.1c1-0.2,1.4-0.7,1.4-1.5c0-0.4-0.3-1.1-0.9-2.1c-0.4-0.7-0.9-1.5-1.5-2.4
		l-4.5-6.7l-5.7,7.1c-0.8,1-1.4,1.7-1.6,2.1c-0.6,0.8-0.8,1.4-0.8,1.9c0,0.7,0.3,1.1,1,1.4s1.5,0.4,2.6,0.4v0.9H66.1v-0.9
		c1.4,0,2.7-0.6,3.8-1.7c0.3-0.3,1.4-1.6,3.1-3.8l7.5-9.2l-5.2-7.6c-2.3-3.3-4-5.4-5.1-6.3c-0.8-0.7-1.9-1-3.5-1.2v-0.9H81v0.9
		c-1.3,0-2,0-2.2,0.1c-0.9,0.2-1.4,0.7-1.4,1.4c0,0.5,0.3,1.3,0.8,2.2c0.6,1,1.6,2.6,3.1,4.8l2,2.8l5.4-6.6c0.4-0.5,0.8-0.9,1-1.4
		c0.6-0.8,0.8-1.4,0.8-1.9c0-0.7-0.3-1.1-0.8-1.3c-0.6-0.2-1.4-0.3-2.4-0.3v-0.9L98.7,19.4L98.7,19.4z"/>
	<path class="st0" d="M102.4,50.9l-0.1-0.4c1.8-0.3,3.2-1.1,4.4-2.3c1.1-1.2,1.9-2.5,2.3-4.2v-0.1c-0.5,0.4-1,0.7-1.6,0.9
		c-0.6,0.2-1.2,0.3-1.7,0.3c-1.4,0-2.4-0.5-3.1-1.5c-0.6-0.8-0.9-1.8-0.9-2.9c0-1.5,0.4-2.8,1.3-3.8s1.9-1.5,3.4-1.5
		c1.4,0,2.5,0.6,3.5,1.7c0.9,1.2,1.4,2.6,1.4,4.5c0,2.5-0.8,4.6-2.3,6.4C107.3,49.9,105.1,50.9,102.4,50.9z M109.1,42.5v-0.8
		c0-1.9-0.3-3.3-0.7-4.2c-0.5-0.9-1.3-1.4-2.3-1.4c-0.8,0-1.5,0.4-1.9,1.3c-0.3,0.7-0.5,1.5-0.5,2.6c0,1.1,0.2,2,0.5,2.8
		c0.5,1,1.3,1.5,2.3,1.5c0.3,0,0.8-0.1,1.2-0.3c0.4-0.2,0.8-0.3,1-0.5C109,43.3,109.1,42.9,109.1,42.5z"/>
	<path class="st0" d="M114.9,50.9l-0.1-0.4c1.8-0.3,3.2-1.1,4.4-2.3c1.1-1.2,1.9-2.5,2.3-4.2v-0.1c-0.5,0.4-1,0.7-1.6,0.9
		c-0.6,0.2-1.2,0.3-1.7,0.3c-1.4,0-2.4-0.5-3.1-1.5c-0.6-0.8-0.9-1.8-0.9-2.9c0-1.5,0.4-2.8,1.3-3.8s1.9-1.5,3.4-1.5
		c1.4,0,2.5,0.6,3.5,1.7c0.9,1.2,1.4,2.6,1.4,4.5c0,2.5-0.8,4.6-2.3,6.4C119.8,49.9,117.6,50.9,114.9,50.9z M121.6,42.5v-0.8
		c0-1.9-0.3-3.3-0.7-4.2c-0.5-0.9-1.3-1.4-2.3-1.4c-0.8,0-1.5,0.4-1.9,1.3c-0.3,0.7-0.5,1.5-0.5,2.6c0,1.1,0.2,2,0.5,2.8
		c0.5,1,1.3,1.5,2.3,1.5c0.3,0,0.8-0.1,1.2-0.3c0.4-0.2,0.8-0.3,1-0.5C121.5,43.3,121.6,42.9,121.6,42.5z"/>
	<path class="st0" d="M127.4,50.9l-0.1-0.4c1.8-0.3,3.2-1.1,4.4-2.3c1.1-1.2,1.9-2.5,2.3-4.2v-0.1c-0.5,0.4-1,0.7-1.6,0.9
		c-0.6,0.2-1.2,0.3-1.7,0.3c-1.4,0-2.4-0.5-3.1-1.5c-0.6-0.8-0.9-1.8-0.9-2.9c0-1.5,0.4-2.8,1.3-3.8s1.9-1.5,3.4-1.5
		c1.4,0,2.5,0.6,3.5,1.7c0.9,1.2,1.4,2.6,1.4,4.5c0,2.5-0.8,4.6-2.3,6.4C132.3,49.9,130.1,50.9,127.4,50.9z M134,42.5v-0.8
		c0-1.9-0.3-3.3-0.7-4.2c-0.5-0.9-1.3-1.4-2.3-1.4c-0.8,0-1.5,0.4-1.9,1.3c-0.3,0.7-0.5,1.5-0.5,2.6c0,1.1,0.2,2,0.5,2.8
		c0.5,1,1.3,1.5,2.3,1.5c0.3,0,0.8-0.1,1.2-0.3c0.4-0.2,0.8-0.3,1-0.5C134,43.3,134,42.9,134,42.5z"/>
	<path class="st0" d="M138.2,50.9c-0.3,0-0.4-0.1-0.6-0.3c-0.3-0.3-0.3-0.5-0.3-0.9c0-0.3,0.1-0.6,0.3-0.8c0.2-0.3,0.4-0.3,0.7-0.3
		c0.3,0,0.5,0.1,0.7,0.3c0.2,0.3,0.3,0.5,0.3,0.8s-0.1,0.6-0.3,0.8C138.6,50.8,138.3,50.9,138.2,50.9z"/>
	<path class="st0" d="M152.9,41.1h-0.4c-0.3-1.2-0.7-2.1-1.3-2.8c-0.7-0.8-1.5-1.1-2.5-1.1c-0.4,0-0.9,0.1-1.4,0.3
		c-0.4,0.3-0.8,0.5-1.3,0.9c-0.4,0.5-0.8,1.1-1,1.8c-0.3,0.9-0.5,2-0.5,3.5c0,2.1,0.4,3.7,1.3,4.8c0.8,1,1.8,1.5,3,1.5
		c0.7,0,1.4-0.2,2-0.5c0.6-0.3,1.3-0.8,1.9-1.6l0.3,0.4c-0.2,0.3-0.3,0.5-0.5,0.7c-0.4,0.5-1,0.9-1.5,1.3c-0.8,0.5-1.7,0.7-2.7,0.7
		c-1.6,0-2.9-0.6-4-1.7c-1.3-1.4-1.9-3.2-1.9-5.7c0-2.3,0.6-4.1,1.9-5.4c1.1-1.3,2.4-1.9,4.1-1.9c0.5,0,1,0.1,1.5,0.3s1,0.3,1.5,0.5
		c0.2,0,0.3-0.1,0.5-0.2c0.2-0.1,0.3-0.3,0.3-0.5h0.3L152.9,41.1z"/>
	<path class="st0" d="M160,50.9c-1.6,0-3-0.7-4.1-1.9c-1.1-1.4-1.7-3.1-1.7-5.3c0-2.3,0.6-4.1,1.8-5.5c1.1-1.3,2.4-1.9,3.9-1.9
		s2.9,0.6,3.9,1.9c1.2,1.4,1.8,3.2,1.8,5.5c0,2.2-0.6,4-1.7,5.3C162.9,50.3,161.6,50.9,160,50.9z M160,50.1c1,0,1.9-0.5,2.5-1.5
		c0.8-1.2,1.1-2.8,1.1-5c0-2.2-0.4-3.9-1.2-5.1c-0.7-1-1.5-1.4-2.5-1.4s-1.9,0.5-2.5,1.4c-0.8,1.2-1.2,2.9-1.2,5.1s0.3,3.9,1.1,5
		C158,49.6,158.9,50.1,160,50.1z"/>
	<path class="st0" d="M181.2,36.9v0.4c-0.6,0-1,0.1-1.2,0.3c-0.3,0.3-0.3,0.8-0.3,1.5v9.4c0,0.8,0.1,1.3,0.3,1.5
		c0.2,0.3,0.6,0.3,1.2,0.3v0.4h-4.9v-0.4c0.7,0,1.1-0.2,1.3-0.4c0.2-0.3,0.3-0.8,0.3-1.8v-9.4l-4.4,12h-0.3l-4.3-11.6v8.4
		c0,1.1,0.1,1.8,0.3,2.2c0.3,0.3,0.7,0.5,1.3,0.5v0.4h-4.1v-0.4c0.7,0,1.1-0.2,1.4-0.5c0.3-0.3,0.3-1.1,0.3-2.2v-8.5
		c0-0.8-0.1-1.4-0.3-1.5c-0.3-0.3-0.7-0.3-1.4-0.3v-0.4h3.5l4,10.7l3.9-10.7H181.2z"/>
	<path class="st0" d="M61.9,34.5c0,7.3-2,13.5-6.6,18.6c-8.7,9.8-21.8,9.7-30.8-0.2c-9.5-10.4-8.3-29.1,2.4-38.3
		c9.7-8.3,23.3-6.1,30.6,5C60.6,24.4,62,29.5,61.9,34.5z M40.1,10.9c-4.8,0-9.2,1.8-12.8,5.2c-10,9.3-10.6,26.4-1.4,36.6
		c7.9,8.6,19.8,8.9,28,0.6c9.4-9.5,9.4-26.6,0.1-36.1C50,13,45.5,10.9,40.1,10.9z"/>
	<path class="st0" d="M51.9,22c-0.8-0.9-4.3,6.4-5.4,11.8c-0.8,3.7-0.9,10.8-1.1,14c0,0.7-0.9,0.8-1.5,1c-0.4,0.2-2.2,0.3-2.2-0.2
		c0-4.7,0.5-24.6,5.9-29.9l-0.3-0.2c-2.6-1.4-5.1-3-7.2-5.2v-0.1L40,13.5c-2.1,2.1-4.5,3.8-7.2,5.2l-0.3,0.2
		c5.4,5.4,5.9,25.2,5.9,29.9c0,0.5-1.8,0.3-2.2,0.2c-0.6-0.3-1.5-0.4-1.5-1c-0.2-3.2-0.3-10.2-1.1-14C32.5,28.4,29,21.1,28.2,22
		c-8.5,9.7-5.5,23.3,0.2,29.5c3.2,3.5,7.5,5.2,11.7,5.2s8.5-1.7,11.7-5.2C57.4,45.3,60.5,31.7,51.9,22z M26.8,34.1
		c2.5,1.9,6,8.7,5.7,12.7C28.2,44.6,26,38.1,26.8,34.1z M47.6,46.7c-0.3-4,3.2-10.7,5.7-12.7C54,38.1,51.9,44.6,47.6,46.7z"/>
	<path class="st0" d="M98.7,19.4v0.9c-1.4,0-2.4,0.3-3.2,0.7c-1,0.6-2.3,1.9-3.9,3.8l-6.9,8.7l9.2,13c0.9,1.4,1.8,2.3,2.4,2.7
		c0.7,0.4,1.6,0.7,2.9,0.8V51H85V50c1.1,0,1.9,0,2.2-0.1c1-0.2,1.4-0.7,1.4-1.5c0-0.4-0.3-1.1-0.9-2.1c-0.4-0.7-0.9-1.5-1.5-2.4
		l-4.5-6.7l-5.7,7.1c-0.8,1-1.4,1.7-1.6,2.1c-0.6,0.8-0.8,1.4-0.8,1.9c0,0.7,0.3,1.1,1,1.4s1.5,0.4,2.6,0.4v0.9H66.1v-0.9
		c1.4,0,2.7-0.6,3.8-1.7c0.3-0.3,1.4-1.6,3.1-3.8l7.5-9.2l-5.2-7.6c-2.3-3.3-4-5.4-5.1-6.3c-0.8-0.7-1.9-1-3.5-1.2v-0.9H81v0.9
		c-1.3,0-2,0-2.2,0.1c-0.9,0.2-1.4,0.7-1.4,1.4c0,0.5,0.3,1.3,0.8,2.2c0.6,1,1.6,2.6,3.1,4.8l2,2.8l5.4-6.6c0.4-0.5,0.8-0.9,1-1.4
		c0.6-0.8,0.8-1.4,0.8-1.9c0-0.7-0.3-1.1-0.8-1.3c-0.6-0.2-1.4-0.3-2.4-0.3v-0.9L98.7,19.4L98.7,19.4z"/>
	<path class="st0" d="M102.4,50.9l-0.1-0.4c1.8-0.3,3.2-1.1,4.4-2.3c1.1-1.2,1.9-2.5,2.3-4.2v-0.1c-0.5,0.4-1,0.7-1.6,0.9
		c-0.6,0.2-1.2,0.3-1.7,0.3c-1.4,0-2.4-0.5-3.1-1.5c-0.6-0.8-0.9-1.8-0.9-2.9c0-1.5,0.4-2.8,1.3-3.8s1.9-1.5,3.4-1.5
		c1.4,0,2.5,0.6,3.5,1.7c0.9,1.2,1.4,2.6,1.4,4.5c0,2.5-0.8,4.6-2.3,6.4C107.3,49.9,105.1,50.9,102.4,50.9z M109.1,42.5v-0.8
		c0-1.9-0.3-3.3-0.7-4.2c-0.5-0.9-1.3-1.4-2.3-1.4c-0.8,0-1.5,0.4-1.9,1.3c-0.3,0.7-0.5,1.5-0.5,2.6c0,1.1,0.2,2,0.5,2.8
		c0.5,1,1.3,1.5,2.3,1.5c0.3,0,0.8-0.1,1.2-0.3c0.4-0.2,0.8-0.3,1-0.5C109,43.3,109.1,42.9,109.1,42.5z"/>
	<path class="st0" d="M114.9,50.9l-0.1-0.4c1.8-0.3,3.2-1.1,4.4-2.3c1.1-1.2,1.9-2.5,2.3-4.2v-0.1c-0.5,0.4-1,0.7-1.6,0.9
		c-0.6,0.2-1.2,0.3-1.7,0.3c-1.4,0-2.4-0.5-3.1-1.5c-0.6-0.8-0.9-1.8-0.9-2.9c0-1.5,0.4-2.8,1.3-3.8s1.9-1.5,3.4-1.5
		c1.4,0,2.5,0.6,3.5,1.7c0.9,1.2,1.4,2.6,1.4,4.5c0,2.5-0.8,4.6-2.3,6.4C119.8,49.9,117.6,50.9,114.9,50.9z M121.6,42.5v-0.8
		c0-1.9-0.3-3.3-0.7-4.2c-0.5-0.9-1.3-1.4-2.3-1.4c-0.8,0-1.5,0.4-1.9,1.3c-0.3,0.7-0.5,1.5-0.5,2.6c0,1.1,0.2,2,0.5,2.8
		c0.5,1,1.3,1.5,2.3,1.5c0.3,0,0.8-0.1,1.2-0.3c0.4-0.2,0.8-0.3,1-0.5C121.5,43.3,121.6,42.9,121.6,42.5z"/>
	<path class="st0" d="M127.4,50.9l-0.1-0.4c1.8-0.3,3.2-1.1,4.4-2.3c1.1-1.2,1.9-2.5,2.3-4.2v-0.1c-0.5,0.4-1,0.7-1.6,0.9
		c-0.6,0.2-1.2,0.3-1.7,0.3c-1.4,0-2.4-0.5-3.1-1.5c-0.6-0.8-0.9-1.8-0.9-2.9c0-1.5,0.4-2.8,1.3-3.8s1.9-1.5,3.4-1.5
		c1.4,0,2.5,0.6,3.5,1.7c0.9,1.2,1.4,2.6,1.4,4.5c0,2.5-0.8,4.6-2.3,6.4C132.3,49.9,130.1,50.9,127.4,50.9z M134,42.5v-0.8
		c0-1.9-0.3-3.3-0.7-4.2c-0.5-0.9-1.3-1.4-2.3-1.4c-0.8,0-1.5,0.4-1.9,1.3c-0.3,0.7-0.5,1.5-0.5,2.6c0,1.1,0.2,2,0.5,2.8
		c0.5,1,1.3,1.5,2.3,1.5c0.3,0,0.8-0.1,1.2-0.3c0.4-0.2,0.8-0.3,1-0.5C134,43.3,134,42.9,134,42.5z"/>
	<path class="st0" d="M138.2,50.9c-0.3,0-0.4-0.1-0.6-0.3c-0.3-0.3-0.3-0.5-0.3-0.9c0-0.3,0.1-0.6,0.3-0.8c0.2-0.3,0.4-0.3,0.7-0.3
		c0.3,0,0.5,0.1,0.7,0.3c0.2,0.3,0.3,0.5,0.3,0.8s-0.1,0.6-0.3,0.8C138.6,50.8,138.3,50.9,138.2,50.9z"/>
	<path class="st0" d="M152.9,41.1h-0.4c-0.3-1.2-0.7-2.1-1.3-2.8c-0.7-0.8-1.5-1.1-2.5-1.1c-0.4,0-0.9,0.1-1.4,0.3
		c-0.4,0.3-0.8,0.5-1.3,0.9c-0.4,0.5-0.8,1.1-1,1.8c-0.3,0.9-0.5,2-0.5,3.5c0,2.1,0.4,3.7,1.3,4.8c0.8,1,1.8,1.5,3,1.5
		c0.7,0,1.4-0.2,2-0.5c0.6-0.3,1.3-0.8,1.9-1.6l0.3,0.4c-0.2,0.3-0.3,0.5-0.5,0.7c-0.4,0.5-1,0.9-1.5,1.3c-0.8,0.5-1.7,0.7-2.7,0.7
		c-1.6,0-2.9-0.6-4-1.7c-1.3-1.4-1.9-3.2-1.9-5.7c0-2.3,0.6-4.1,1.9-5.4c1.1-1.3,2.4-1.9,4.1-1.9c0.5,0,1,0.1,1.5,0.3s1,0.3,1.5,0.5
		c0.2,0,0.3-0.1,0.5-0.2c0.2-0.1,0.3-0.3,0.3-0.5h0.3L152.9,41.1z"/>
	<path class="st0" d="M160,50.9c-1.6,0-3-0.7-4.1-1.9c-1.1-1.4-1.7-3.1-1.7-5.3c0-2.3,0.6-4.1,1.8-5.5c1.1-1.3,2.4-1.9,3.9-1.9
		s2.9,0.6,3.9,1.9c1.2,1.4,1.8,3.2,1.8,5.5c0,2.2-0.6,4-1.7,5.3C162.9,50.3,161.6,50.9,160,50.9z M160,50.1c1,0,1.9-0.5,2.5-1.5
		c0.8-1.2,1.1-2.8,1.1-5c0-2.2-0.4-3.9-1.2-5.1c-0.7-1-1.5-1.4-2.5-1.4s-1.9,0.5-2.5,1.4c-0.8,1.2-1.2,2.9-1.2,5.1s0.3,3.9,1.1,5
		C158,49.6,158.9,50.1,160,50.1z"/>
	<path class="st0" d="M181.2,36.9v0.4c-0.6,0-1,0.1-1.2,0.3c-0.3,0.3-0.3,0.8-0.3,1.5v9.4c0,0.8,0.1,1.3,0.3,1.5
		c0.2,0.3,0.6,0.3,1.2,0.3v0.4h-4.9v-0.4c0.7,0,1.1-0.2,1.3-0.4c0.2-0.3,0.3-0.8,0.3-1.8v-9.4l-4.4,12h-0.3l-4.3-11.6v8.4
		c0,1.1,0.1,1.8,0.3,2.2c0.3,0.3,0.7,0.5,1.3,0.5v0.4h-4.1v-0.4c0.7,0,1.1-0.2,1.4-0.5c0.3-0.3,0.3-1.1,0.3-2.2v-8.5
		c0-0.8-0.1-1.4-0.3-1.5c-0.3-0.3-0.7-0.3-1.4-0.3v-0.4h3.5l4,10.7l3.9-10.7H181.2z"/>
	<path class="st0" d="M61.9,34.5c0,7.3-2,13.5-6.6,18.6c-8.7,9.8-21.8,9.7-30.8-0.2c-9.5-10.4-8.3-29.1,2.4-38.3
		c9.7-8.3,23.3-6.1,30.6,5C60.6,24.4,62,29.5,61.9,34.5z M40.1,10.9c-4.8,0-9.2,1.8-12.8,5.2c-10,9.3-10.6,26.4-1.4,36.6
		c7.9,8.6,19.8,8.9,28,0.6c9.4-9.5,9.4-26.6,0.1-36.1C50,13,45.5,10.9,40.1,10.9z"/>
	<path class="st0" d="M51.9,22c-0.8-0.9-4.3,6.4-5.4,11.8c-0.8,3.7-0.9,10.8-1.1,14c0,0.7-0.9,0.8-1.5,1c-0.4,0.2-2.2,0.3-2.2-0.2
		c0-4.7,0.5-24.6,5.9-29.9l-0.3-0.2c-2.6-1.4-5.1-3-7.2-5.2v-0.1L40,13.5c-2.1,2.1-4.5,3.8-7.2,5.2l-0.3,0.2
		c5.4,5.4,5.9,25.2,5.9,29.9c0,0.5-1.8,0.3-2.2,0.2c-0.6-0.3-1.5-0.4-1.5-1c-0.2-3.2-0.3-10.2-1.1-14C32.5,28.4,29,21.1,28.2,22
		c-8.5,9.7-5.5,23.3,0.2,29.5c3.2,3.5,7.5,5.2,11.7,5.2s8.5-1.7,11.7-5.2C57.4,45.3,60.5,31.7,51.9,22z M26.8,34.1
		c2.5,1.9,6,8.7,5.7,12.7C28.2,44.6,26,38.1,26.8,34.1z M47.6,46.7c-0.3-4,3.2-10.7,5.7-12.7C54,38.1,51.9,44.6,47.6,46.7z"/>
	<g>
		<path class="st0" d="M105.9,21.6l-1.2,4.6c-0.3,1.3-0.5,2.2-0.5,2.8s0.1,1.1,0.2,1.6c0.1,0.5,0.2,0.8,0.2,1.2c0,0.7-0.3,1-0.7,1
			c-0.4,0-0.8-0.1-1-0.3s-0.4-0.5-0.4-0.8c0-0.1,0-0.2,0-0.3c0.2-1,0.3-1.7,0.3-2c0-0.4-0.1-0.7-0.3-0.8c-0.2-0.2-0.6-0.3-1.1-0.4
			v-0.4c0.3,0,0.4,0,0.6,0c0.5,0,0.8-0.1,1.1-0.3c0.3-0.2,0.5-0.6,0.8-1.4l1.8-4.6L105.9,21.6z M101.7,21.6c1.5,0.8,2.2,1.4,2.2,1.9
			c0,0.2-0.1,0.4-0.3,0.7c-0.2,0.3-0.3,0.5-0.5,0.5s-0.3,0-0.3-0.1c-0.1-0.1-0.1-0.2-0.1-0.3c-0.2-0.6-0.3-1-0.5-1.4
			c-0.2-0.3-0.4-0.8-0.8-1.1L101.7,21.6z M102.9,18.5c1,0.5,1.7,0.8,2,1.1s0.5,0.5,0.5,0.8s-0.1,0.4-0.2,0.7
			c-0.1,0.3-0.3,0.4-0.3,0.5c-0.2,0.1-0.3,0.2-0.4,0.2c-0.1,0-0.3-0.2-0.3-0.6c-0.2-0.5-0.3-0.8-0.5-1.1s-0.5-0.7-0.9-1.3
			L102.9,18.5z M110.5,28.9c-0.4,1.4-1,2.4-1.9,3s-2.3,0.9-4.4,1.3v-0.3c1.6-0.5,2.8-1,3.5-1.6c0.8-0.6,1.2-1.4,1.4-2.4h-3.4
			c-0.3,0-0.5,0-0.7,0.1l-0.3-0.8c0.3,0.1,0.5,0.1,0.8,0.1h3.6c0.1-0.4,0.2-0.8,0.2-1.4c0.7,0.2,1.1,0.3,1.4,0.4
			c0.3,0.1,0.4,0.2,0.4,0.3c0,0.1-0.1,0.2-0.3,0.3c-0.2,0.1-0.3,0.3-0.3,0.5h3.2l0.6-0.8c0.1-0.1,0.2-0.2,0.3-0.2
			c0.1,0,0.3,0.1,0.4,0.2s0.3,0.3,0.5,0.4c0.3,0.2,0.3,0.3,0.5,0.5c0.1,0.2,0.2,0.3,0.2,0.3c0,0.1-0.1,0.1-0.3,0.1h-4.9
			c0.9,1.4,2.7,2.3,5.3,2.8V32c-0.4,0-0.8,0.1-1.3,0.3c-0.3,0.2-0.6,0.3-0.8,0.6c-0.1,0.1-0.1,0.2-0.2,0.2c-0.2,0-0.6-0.3-1.3-0.8
			c-0.8-0.5-1.3-1-1.6-1.5c-0.3-0.5-0.6-1-0.7-1.7h-0.3V28.9z M108.9,20c0.3-0.7,0.4-1.4,0.5-2.1c0.3,0.1,0.6,0.2,1,0.3
			c0.3,0.1,0.6,0.2,0.6,0.3c0.1,0.1,0.1,0.1,0.1,0.2c0,0.1-0.1,0.1-0.3,0.2c-0.2,0-0.3,0.2-0.5,0.3s-0.4,0.5-0.8,0.9h3.9l0.3-0.4
			c0.1-0.1,0.2-0.2,0.3-0.2c0.1,0,0.3,0.2,0.8,0.4c0.4,0.3,0.6,0.5,0.6,0.6s-0.2,0.3-0.6,0.4v4.2c0,0.5,0,0.8,0,1v0.5
			c0,0.1,0,0.2-0.1,0.2c0,0.1-0.2,0.1-0.3,0.2c-0.2,0.1-0.3,0.2-0.5,0.3c-0.2,0.1-0.3,0.1-0.3,0.1c-0.1,0-0.1-0.1-0.1-0.2v-6.6h-6.2
			v6.8c0,0.2-0.1,0.3-0.2,0.3c-0.1,0.1-0.3,0.2-0.5,0.3c-0.3,0.1-0.4,0.2-0.4,0.2s-0.1-0.1-0.1-0.2c0.1-0.5,0.1-1.1,0.1-1.7v-5.5
			c0-0.3,0-0.8-0.1-1.4c0.4,0.2,0.8,0.3,1.3,0.6H108.9z M110.8,23.9h1l0.3-0.5c0.1-0.1,0.1-0.2,0.2-0.2c0.1,0,0.3,0.2,0.6,0.4
			c0.3,0.3,0.4,0.5,0.4,0.6s-0.1,0.1-0.3,0.1h-2.3v0.3c0.8,0.3,1.4,0.5,1.7,0.8c0.3,0.3,0.4,0.4,0.4,0.7s0,0.5-0.1,0.7
			c-0.1,0.2-0.2,0.3-0.3,0.3c-0.2,0-0.3-0.2-0.5-0.6c-0.3-0.7-0.7-1.2-1.1-1.5v1.5c0,0.1,0,0.2,0,0.2s-0.1,0.1-0.3,0.2
			c-0.2,0.1-0.3,0.1-0.5,0.2s-0.3,0-0.3,0c-0.1,0-0.1-0.1-0.1-0.3l0.1-1.8c-0.7,0.8-1.4,1.5-2.3,2.1l-0.2-0.3
			c0.8-0.9,1.4-1.7,1.8-2.4h-0.7c-0.3,0-0.5,0-0.7,0.1l-0.3-0.7c0.3,0.1,0.5,0.1,0.8,0.1h1.5v-1.4c0-0.7,0-1.3-0.1-1.8
			c0.6,0.1,1,0.2,1.2,0.3c0.2,0.1,0.3,0.2,0.3,0.2c0,0.1-0.1,0.3-0.3,0.3v2.5H110.8z M108,21.1c0.9,0.6,1.4,1.1,1.4,1.5
			c0,0.2-0.1,0.4-0.3,0.6c-0.2,0.3-0.3,0.3-0.5,0.3s-0.3-0.1-0.3-0.2s-0.1-0.3-0.1-0.4c0-0.7-0.2-1.3-0.4-1.8L108,21.1z M111.9,21.2
			c0.8,0.3,1.2,0.5,1.2,0.7c0,0.1-0.1,0.1-0.2,0.2c-0.1,0-0.3,0.2-0.5,0.3c-0.2,0.2-0.6,0.6-1.2,1.4l-0.3-0.2
			C111.5,22.6,111.7,21.7,111.9,21.2z"/>
		<path class="st0" d="M119.1,20.7c1.4,0.3,2,0.7,2,0.8c0,0.1-0.2,0.2-0.4,0.3v10.3c0,0.1,0,0.2-0.1,0.2c0,0-0.2,0.1-0.3,0.2
			c-0.2,0.1-0.4,0.2-0.7,0.3c-0.3,0.1-0.4,0.1-0.4,0.1c-0.1,0-0.1,0-0.1-0.1l0.1-0.9c0-0.4,0-0.8,0-1.4V22
			C119.1,21.6,119.1,21.2,119.1,20.7z M120.4,17.9c1.2,0.6,1.9,1.1,2.4,1.5c0.4,0.3,0.6,0.8,0.6,1.2s-0.1,0.8-0.3,1
			c-0.3,0.3-0.4,0.3-0.6,0.3s-0.3-0.1-0.3-0.2c-0.1-0.1-0.2-0.3-0.2-0.5c-0.3-1.3-0.8-2.3-1.6-3.1L120.4,17.9z M129.6,19.5l0.5-0.8
			c0.1-0.1,0.1-0.1,0.2-0.1c0.1,0,0.3,0.1,0.7,0.3c0.3,0.3,0.7,0.4,0.8,0.6c0.2,0.2,0.3,0.3,0.3,0.3c0,0.2-0.3,0.3-0.8,0.5v10.2
			c0,0.5,0,0.8-0.1,1.1s-0.2,0.4-0.3,0.6c-0.2,0.2-0.5,0.3-0.9,0.5c-0.4,0.2-0.8,0.3-0.8,0.3s-0.2-0.1-0.3-0.3
			c-0.1-0.3-0.2-0.5-0.3-0.7c-0.2-0.2-0.3-0.3-0.7-0.5c-0.3-0.2-0.8-0.3-1.4-0.5l0.1-0.3c1.4,0.3,2.3,0.5,2.6,0.5s0.5,0,0.6-0.1
			s0.2-0.3,0.2-0.4V20.1h-4.6c-0.2,0-0.4,0-0.6,0.1l-0.4-0.7c0.3,0.1,0.5,0.1,0.8,0.1H129.6z"/>
		<path class="st0" d="M135.8,27.1c0.3,0.2,0.6,0.3,0.9,0.5c0.3,0.2,0.4,0.3,0.5,0.3v0.1c0,0.1-0.1,0.2-0.3,0.2
			c-0.1,0-0.2,0.1-0.3,0.1c-0.1,0.1-0.2,0.2-0.3,0.4c-0.5,0.9-1.4,1.9-2.4,3l-0.3-0.3C134.7,30.3,135.4,28.8,135.8,27.1z
			 M138.5,23.9c0.4-1.2,0.7-2.3,0.8-3.1c0.8,0.3,1.2,0.6,1.4,0.7c0.2,0.1,0.3,0.2,0.3,0.3c0,0.1-0.1,0.1-0.3,0.2
			c-0.2,0-0.3,0.2-0.4,0.3c-0.1,0.2-0.5,0.8-1.2,1.8h1.1l0.7-0.8c0.1-0.1,0.2-0.2,0.3-0.2s0.3,0.2,0.8,0.6s0.7,0.6,0.7,0.8
			c0,0.1-0.1,0.2-0.3,0.2h-3.4v1.9h0.9l0.5-0.8c0.1-0.2,0.2-0.2,0.3-0.2c0.1,0,0.3,0.1,0.5,0.3c0.3,0.2,0.5,0.3,0.7,0.6
			c0.2,0.3,0.3,0.3,0.3,0.4c0,0.2-0.2,0.3-0.4,0.3h-2.8v3.7c0,0.6-0.1,1.1-0.2,1.3c-0.1,0.3-0.3,0.5-0.7,0.7
			c-0.4,0.3-0.7,0.3-0.8,0.3c-0.1,0-0.2-0.1-0.3-0.3c-0.1-0.3-0.3-0.6-0.3-0.7c-0.2-0.2-0.5-0.3-1.1-0.6v-0.3
			c0.8,0.2,1.3,0.3,1.5,0.3c0.3,0,0.3-0.1,0.4-0.2c0.1-0.1,0.1-0.3,0.1-0.5v-3.8h-2.1c-0.3,0-0.5,0-0.7,0.1l-0.3-0.7
			c0.3,0.1,0.5,0.1,0.8,0.1h2.3v-1.9h-2.4c-0.3,0-0.5,0-0.7,0.1l-0.3-0.7c0.3,0.1,0.5,0.1,0.8,0.1h3.3V23.9z M137.9,20.1
			c-0.1-0.1-0.2-0.3-0.3-0.7s-0.2-0.7-0.3-0.9c-0.2-0.3-0.3-0.5-0.6-0.8l0.2-0.3c0.7,0.3,1.2,0.5,1.6,0.8c0.3,0.3,0.6,0.6,0.6,0.8
			s-0.2,0.6-0.5,0.9h1.1l0.5-0.8c0.1-0.1,0.2-0.2,0.3-0.2s0.2,0.1,0.3,0.2c0.2,0.1,0.3,0.3,0.6,0.5c0.3,0.3,0.4,0.3,0.5,0.4
			c0.1,0.1,0.1,0.2,0.1,0.2c0,0.1-0.1,0.2-0.3,0.2h-6.1c-0.3,0-0.5,0-0.7,0.1l-0.3-0.7c0.3,0.1,0.5,0.1,0.8,0.1
			C135.5,20.1,137.9,20.1,137.9,20.1z M136,20.8c0.7,0.4,1.1,0.8,1.3,1c0.3,0.3,0.3,0.5,0.3,0.7c0,0.3-0.1,0.5-0.3,0.8
			c-0.2,0.3-0.3,0.4-0.4,0.4c-0.1,0-0.3,0-0.3-0.1c-0.1-0.1-0.1-0.3-0.2-0.7c-0.1-0.3-0.2-0.7-0.3-0.9c-0.1-0.3-0.3-0.6-0.6-1
			L136,20.8z M139.4,27.3c0.6,0.3,1.1,0.7,1.5,1c0.4,0.3,0.7,0.7,0.7,0.9s-0.1,0.5-0.3,0.8c-0.2,0.3-0.3,0.4-0.5,0.4
			c-0.2,0-0.3-0.2-0.3-0.4c-0.3-0.9-0.7-1.8-1.3-2.5L139.4,27.3z M144.3,20.1c0.8-0.3,1.9-0.8,3.4-1.8c0.8,1,1.2,1.6,1.2,1.7
			s0,0.1-0.1,0.1c-0.1,0-0.2,0-0.3-0.1c-0.2-0.1-0.3-0.1-0.4-0.1c-0.2,0-0.7,0.1-1.6,0.3c-0.9,0.2-1.7,0.3-2.2,0.3l-0.1,3.2h2.8
			l0.8-0.9c0.1-0.1,0.2-0.2,0.3-0.2s0.3,0.3,0.8,0.7c0.5,0.4,0.8,0.8,0.8,0.8s-0.1,0.1-0.3,0.1H147v6.5c0,0.5,0,0.9,0,1.1v0.6
			c0,0.1,0,0.2-0.1,0.3c-0.1,0.1-0.3,0.2-0.6,0.3s-0.5,0.2-0.6,0.2c-0.1,0-0.1-0.1-0.1-0.3v-8.4h-1.6c-0.1,1.8-0.2,3-0.3,3.5
			c-0.1,0.6-0.3,1.1-0.4,1.6c-0.2,0.5-0.5,1-0.9,1.6c-0.4,0.5-1.1,1.2-1.9,1.9l-0.3-0.3c0.7-0.7,1.2-1.4,1.5-1.9
			c0.3-0.6,0.6-1.3,0.8-2c0.2-0.8,0.3-1.6,0.3-2.4c0.1-0.8,0.1-2,0.1-3.5c0-1.4,0-2.6,0-3.5C143.2,19.5,143.7,19.8,144.3,20.1z"/>
		<path class="st0" d="M161.1,19.8h2.2l0.7-0.8c0.1-0.1,0.2-0.2,0.3-0.2c0.1,0,0.3,0.3,0.8,0.6c0.4,0.4,0.7,0.7,0.7,0.8
			s-0.1,0.2-0.3,0.2h-4.3v1.3c0,0.2,0,0.3-0.1,0.3c-0.1,0.1-0.2,0.2-0.4,0.3c-0.3,0.1-0.4,0.2-0.7,0.2c-0.1,0-0.2-0.1-0.2-0.3v-1.7
			h-3.2v1.1c0,0.2,0,0.3-0.1,0.3s-0.2,0.2-0.4,0.3c-0.3,0.1-0.4,0.2-0.6,0.2c-0.1,0-0.2-0.1-0.2-0.3c-0.2,0-0.3,0.3-0.6,0.6h7.6
			l0.3-0.7c0.1-0.1,0.1-0.2,0.2-0.2s0.3,0.2,0.9,0.4c0.5,0.3,0.8,0.5,0.8,0.6s-0.2,0.3-0.6,0.5c0,1.4,0,3,0,4.8
			c0,1.8-0.1,2.9-0.1,3.2s-0.1,0.7-0.3,0.9c-0.2,0.3-0.4,0.5-0.8,0.8c-0.4,0.3-0.7,0.4-0.8,0.4s-0.2-0.1-0.3-0.3
			c-0.1-0.3-0.2-0.4-0.3-0.6c-0.2-0.2-0.4-0.3-0.8-0.5c-0.1,0.2-0.3,0.3-0.6,0.5c-0.3,0.2-0.5,0.3-0.6,0.3c-0.1,0-0.1-0.1-0.2-0.2
			c-0.1-0.3-0.2-0.4-0.3-0.6c-0.2-0.2-0.5-0.3-1-0.6L158,31c0.6,0.2,1,0.2,1.2,0.2c0.2,0,0.3,0,0.3-0.1c0.1-0.1,0.1-0.2,0.1-0.3
			v-1.1h-2.2v0.7v1.4c0,0.2,0,0.3-0.1,0.3c0,0-0.2,0.1-0.5,0.3c-0.3,0.1-0.5,0.2-0.6,0.2c-0.1,0-0.1-0.1-0.1-0.2v-0.6
			c0-0.3,0-0.5,0-0.9v-0.9h-2v2.4c0,0.2,0,0.3-0.1,0.3c-0.1,0.1-0.3,0.2-0.5,0.3c-0.3,0.1-0.4,0.2-0.6,0.2c-0.1,0-0.1-0.1-0.1-0.3
			c0-0.4,0.1-0.8,0.1-1.3v-4.2c0-0.5,0-1-0.1-1.5c0.5,0.2,1.1,0.3,1.6,0.6h1.7v-0.8h-2.6c-0.3,0-0.6,0-0.7,0.1l-0.3-0.5
			c-0.6,0.5-1.3,1.1-2,1.6l-0.2-0.2c1.7-1.9,2.9-3.6,3.5-5.4c0.6,0.2,1,0.4,1.4,0.8c0-0.3,0-0.7,0-1.2h-3.9c-0.3,0-0.5,0-0.7,0.1
			l-0.3-0.8c0.3,0.1,0.5,0.1,0.8,0.1h4.1v-0.7c0-0.5,0-0.9-0.1-1.2c1.2,0.3,1.8,0.5,1.8,0.7c0,0.1-0.2,0.2-0.5,0.3v0.7h3.1V19
			c0-0.3,0-0.8-0.1-1.2c0.8,0.2,1.2,0.3,1.4,0.4s0.3,0.2,0.3,0.3s-0.2,0.3-0.5,0.4v0.9H161.1z M154.3,22.8c-0.5,0.7-1,1.3-1.5,1.8
			c0.3,0,0.4,0.1,0.7,0.1h2.8c0-0.8,0-1.4,0-1.8c0.5,0.1,0.8,0.2,1.1,0.3c0.3,0.1,0.3,0.1,0.4,0.2s0.1,0.1,0.1,0.1
			c0,0.1-0.1,0.2-0.3,0.3v0.9h3l0.5-0.8c0.1-0.1,0.2-0.2,0.2-0.2c0.1,0,0.3,0.2,0.7,0.5c0.3,0.3,0.6,0.6,0.6,0.7
			c0,0.1-0.1,0.1-0.3,0.1h-4.8v0.8h2l0.3-0.4c0-0.1,0.1-0.1,0.2-0.1c0.1,0,0.2,0.1,0.4,0.2c0.3,0.2,0.4,0.3,0.6,0.4
			c0.2,0.1,0.3,0.2,0.3,0.3c0,0.1-0.2,0.2-0.4,0.3v4.3c0,0.2,0,0.3-0.1,0.5c0.3,0.1,0.6,0.1,0.8,0.1c0.2,0,0.4-0.1,0.6-0.2
			c0.2-0.1,0.3-0.3,0.3-0.5c0.1-0.3,0.1-1.2,0.2-2.7c0-1.5,0.1-3.3,0-5.2L154.3,22.8L154.3,22.8z M154.2,26.5v1.1h2v-1.1H154.2z
			 M154.2,28v1.1h2V28H154.2z M157.4,26.5v1.1h2.2v-1.1H157.4z M157.4,28v1.1h2.2V28H157.4z M158.1,23c0.7,0.1,1.2,0.2,1.5,0.3
			s0.5,0.3,0.5,0.5c0,0.1,0,0.3-0.1,0.4c-0.1,0.2-0.2,0.3-0.3,0.3c-0.2,0-0.3-0.1-0.4-0.2c-0.3-0.3-0.7-0.7-1.3-1L158.1,23z"/>
		<path class="st0" d="M170.8,27.5c0.3,0.2,0.6,0.3,0.8,0.5c0.3,0.2,0.5,0.3,0.6,0.4c0.1,0.1,0.2,0.2,0.2,0.3c0,0.1-0.1,0.2-0.3,0.2
			c-0.2,0-0.3,0.1-0.3,0.1c-0.1,0.1-0.4,0.3-0.9,0.9c-0.5,0.5-1.1,1-1.6,1.4c-0.5,0.4-1.4,0.9-2.4,1.5l-0.2-0.3
			c1.2-1.2,2.1-2,2.6-2.7C169.8,29.1,170.3,28.3,170.8,27.5z M174.1,20.7c-0.3-1.2-0.7-2-1.2-2.5l0.2-0.3c1.7,0.3,2.5,0.8,2.5,1.4
			c0,0.2-0.1,0.4-0.3,0.7c-0.2,0.3-0.4,0.5-0.8,0.7h4.5l0.8-1.1c0.1-0.2,0.3-0.3,0.3-0.3s0.3,0.1,0.3,0.2c0.2,0.1,0.3,0.3,0.7,0.6
			c0.3,0.3,0.5,0.5,0.6,0.6c0.1,0.1,0.2,0.3,0.2,0.3s-0.1,0.2-0.3,0.2h-13.8c-0.3,0-0.5,0-0.7,0.1l-0.3-0.7c0.3,0.1,0.5,0.1,0.8,0.1
			C167.8,20.7,174.1,20.7,174.1,20.7z M171.8,22.8h5.3l0.4-0.6c0.1-0.1,0.2-0.2,0.2-0.2c0.1,0,0.4,0.2,0.8,0.4s0.7,0.4,0.8,0.5
			c0.1,0.1,0.1,0.1,0.1,0.2s-0.3,0.3-0.8,0.6V26v0.8c0,0.1,0,0.2-0.1,0.3c-0.1,0.1-0.3,0.1-0.5,0.2c-0.3,0.1-0.4,0.1-0.6,0.1
			c-0.1,0-0.2,0-0.2-0.1s0-0.2,0-0.3v-0.4h-2.1v4.4c0,0.8-0.1,1.4-0.3,1.6c-0.2,0.3-0.4,0.4-0.8,0.5c-0.4,0.2-0.6,0.2-0.7,0.2
			s-0.2-0.1-0.3-0.3c-0.1-0.3-0.3-0.7-0.5-0.8c-0.3-0.2-0.8-0.4-1.5-0.7v-0.3c1.1,0.2,1.8,0.3,2,0.3c0.3,0,0.4,0,0.5-0.1
			c0.1-0.1,0.1-0.2,0.1-0.3v-4.4h-2.4c0,0.3,0,0.4-0.1,0.4c-0.1,0.1-0.3,0.2-0.5,0.3c-0.3,0.1-0.5,0.2-0.6,0.2
			c-0.1,0-0.2-0.1-0.2-0.3c0-0.3,0.1-0.8,0.1-1.2v-2.7c0-0.4,0-0.9-0.1-1.4C170.9,22.3,171.4,22.7,171.8,22.8z M177.4,26.1v-2.9h-6
			v2.9H177.4z M176,27.7c1.2,0.4,2.3,0.9,3.2,1.5c1,0.5,1.4,1.1,1.4,1.8c0,0.3-0.1,0.7-0.3,0.9c-0.2,0.3-0.3,0.4-0.5,0.4
			c-0.1,0-0.2,0-0.3-0.1c-0.1-0.1-0.2-0.2-0.3-0.4c-0.5-0.8-1-1.5-1.5-2.1c-0.5-0.6-1.3-1.2-2.1-1.9L176,27.7z"/>
	</g>
</g>
</svg>
